<svg width="100" height="100" viewBox="0 0 100 100" fill="none" xmlns="http://www.w3.org/2000/svg">
<g clip-path="url(#clip0_137_5)">
<path d="M19.5238 78.0952L50.8333 77.8381C87.1524 77.5381 86.4762 77.5857 89.6905 75C95.1714 70.5857 95.0238 58.3143 89.5238 61.0809C88.319 61.6905 88.1666 62.119 87.3 67.3809C86.5143 72.1333 88.3095 71.9095 18.0952 71.9048C18.0952 41.7048 18.1143 41.3952 19.2143 38.9333C21.3285 34.2095 18.6857 34.5428 55.2333 34.4048L87.1428 34.2857L87.5 42.9762C87.8857 52.419 88.1714 53.3333 90.7143 53.3333C93.4666 53.3333 93.8095 52.2286 93.8095 35.2381C97.3809 38.8238 97.3809 38.8238 97.519 57.1333C97.7333 84.6762 102.157 81.9762 57.0619 81.8C23.7381 81.6667 23.7381 81.6667 21.6333 79.8809L19.5238 78.0952ZM39.8666 42.1714C33.3381 43.6048 32.1762 54.5048 38.2571 57.2952C39.2524 57.7524 40.6619 58.0048 41.5476 57.8809C42.5381 57.7429 43.6666 57.0476 44.6762 55.9429C46.1952 54.2952 46.2285 54.1762 45.5 53.0667C44.5714 51.6476 43.7571 51.5952 42.6 52.8809C40.2333 55.4905 37.1 51.8476 38.5905 48.2143C39.4714 46.0667 41.0524 45.6095 42.4476 47.1048C43.5952 48.3333 44.3762 48.3571 45.4381 47.1857C47.2857 45.1428 43.1809 41.4428 39.8666 42.1714ZM50 55.9381C50 56.5238 50.3238 57.2476 50.7143 57.5476C51.1095 57.8476 51.7 57.9333 52.0333 57.7381C52.3666 57.5428 52.9 56.7905 53.2143 56.0714C54.1095 54.0381 57.1428 54.1286 57.1428 56.1905C57.1428 57.5048 57.5714 57.8809 58.7857 57.6429C59.0381 57.5952 59.6238 56.9286 60.0905 56.1571C60.6476 55.2381 61.3285 54.7619 62.0762 54.7619C64.1952 54.7619 64.7476 53.3286 62.9905 52.3857C60.8809 51.2524 61.5762 48.2381 64 48C65.8381 47.8238 66.4524 45.819 64.8 45.3857C64.1666 45.219 63.8095 44.7381 63.8095 44.0524C63.8095 41.8048 62.3952 41.5095 61.0143 43.4714C59.3333 45.8524 56.6666 46.0952 56.6666 43.8619C56.6666 41.7952 55.4476 41.6428 54.1571 43.5476C53.4095 44.6476 52.619 45.2048 51.6571 45.3143C49.8 45.5286 49.5 46.9428 51.1381 47.7905C53.0095 48.7619 52.0952 51.7809 49.8666 51.9952C47.9762 52.1762 47.3238 54.1714 49.0095 54.6143C49.6381 54.7809 50 55.2619 50 55.9381Z" fill="#8EC9F9"/>
<path d="M87.1429 34.2857C87.2572 28.181 88.6857 28.3524 51.0905 28.1905C10.2429 28.0143 12.381 27.5953 12.381 35.8191C12.381 43.1667 6.81907 44.5524 6.29526 37.3334C5.81431 30.6953 8.11431 25.581 12.5048 23.5286C16.7048 21.5667 83.7334 21.7524 87.7667 23.7381C91.0286 25.3381 93.1905 28.7286 93.581 32.8476L93.8095 35.2381C93.8095 52.2286 93.4667 53.3334 90.7143 53.3334C88.1715 53.3334 87.8857 52.4191 87.5 42.9762L87.1429 34.2857Z" fill="#16163F"/>
<path d="M18.0952 71.9047C88.3095 71.9095 86.5143 72.1333 87.3 67.3809C88.1667 62.119 88.319 61.6905 89.5238 61.0809C95.0238 58.3143 95.1714 70.5857 89.6905 75C86.4762 77.5857 87.1524 77.5381 50.8333 77.8381L19.5238 78.0952C8.58571 76.3619 6.50475 72.8952 6.27618 60.6619C6.10475 51.6143 6.4619 49.9524 8.71904 49.3333C11.7524 48.5095 12.3809 50.2905 12.3809 59.6714C12.3809 69.3476 12.6857 70.3095 16.0762 71.3095L18.0952 71.9047Z" fill="#16163F"/>
<path d="M50.0001 55.9381C50.0001 55.2619 49.6381 54.7809 49.0096 54.6143C47.3239 54.1714 47.9762 52.1762 49.8667 51.9952C52.0953 51.7809 53.0096 48.7619 51.1381 47.7905C49.5001 46.9428 49.8001 45.5286 51.6572 45.3143C52.6191 45.2047 53.4096 44.6476 54.1572 43.5476C55.4477 41.6428 56.6667 41.7952 56.6667 43.8619C56.6667 46.0952 59.3334 45.8524 61.0143 43.4714C62.3953 41.5095 63.8096 41.8047 63.8096 44.0524C63.8096 44.7381 64.1667 45.219 64.8001 45.3857C66.4524 45.819 65.8381 47.8238 64.0001 48C61.5762 48.2381 60.881 51.2524 62.9905 52.3857C64.7477 53.3286 64.1953 54.7619 62.0762 54.7619C61.3286 54.7619 60.6477 55.2381 60.0905 56.1571C59.6239 56.9286 59.0381 57.5952 58.7858 57.6428C57.5715 57.8809 57.1429 57.5047 57.1429 56.1905C57.1429 54.1286 54.1096 54.0381 53.2143 56.0714C52.9001 56.7905 52.3667 57.5428 52.0334 57.7381C51.7001 57.9333 51.1096 57.8476 50.7143 57.5476C50.3239 57.2476 50.0001 56.5238 50.0001 55.9381ZM57.7477 48.0952C55.8477 48.0952 54.762 49.2286 54.762 51.2143C54.762 51.7 55.3143 51.9047 56.6143 51.9047C58.1762 51.9047 58.5143 51.7238 58.7572 50.7571C58.9143 50.1286 59.1762 49.2714 59.3334 48.8524C59.5715 48.2381 59.2715 48.0952 57.7477 48.0952Z" fill="#16163F"/>
<path d="M39.8667 42.1714C43.181 41.4429 47.2858 45.1429 45.4382 47.1857C44.3763 48.3571 43.5953 48.3333 42.4477 47.1048C41.0525 45.6095 39.4715 46.0667 38.5906 48.2143C37.1001 51.8476 40.2334 55.4905 42.6001 52.881C43.7572 51.5952 44.5715 51.6476 45.5001 53.0667C46.2286 54.1762 46.1953 54.2952 44.6763 55.9429C43.6667 57.0476 42.5382 57.7429 41.5477 57.881C40.662 58.0048 39.2525 57.7524 38.2572 57.2952C32.1763 54.5048 33.3382 43.6048 39.8667 42.1714Z" fill="#16163F"/>
<path d="M57.7477 48.0952C59.2715 48.0952 59.5715 48.2381 59.3334 48.8524C59.1762 49.2714 58.9143 50.1285 58.7572 50.7571C58.5143 51.7238 58.1762 51.9047 56.6143 51.9047C55.3143 51.9047 54.762 51.7 54.762 51.2143C54.762 49.2285 55.8477 48.0952 57.7477 48.0952Z" fill="#70AFED"/>
</g>
<defs>
<clipPath id="clip0_137_5">
<rect width="100" height="100" fill="white"/>
</clipPath>
</defs>
</svg>
