<svg xmlns="http://www.w3.org/2000/svg" xmlns:xlink="http://www.w3.org/1999/xlink" viewBox="0,0,256,256" width="48px" height="48px" fill-rule="nonzero"><g fill="none" fill-rule="nonzero" stroke="none" stroke-width="none" stroke-linecap="none" stroke-linejoin="none" stroke-miterlimit="10" stroke-dasharray="" stroke-dashoffset="0" font-family="none" font-weight="none" font-size="none" text-anchor="none" style="mix-blend-mode: normal"><g transform="scale(5.33333,5.33333)"><path d="M40.971,11.004h-25.942c-1.135,0 -2.029,0.967 -1.939,2.099l2.226,28.126c0.06,0.763 0.563,1.42 1.283,1.678l10.745,3.851c0.424,0.152 0.888,0.152 1.313,0l10.745,-3.851c0.72,-0.258 1.223,-0.915 1.283,-1.678l2.226,-28.126c0.089,-1.132 -0.805,-2.099 -1.94,-2.099z" fill="#90dbf9" stroke="none" stroke-width="1" stroke-linecap="butt" stroke-linejoin="miter"></path><path d="M9.473,18.79l1.486,18.785c0.062,0.784 0.578,1.46 1.319,1.725l11.047,3.959c0.436,0.156 0.913,0.156 1.349,0l11.047,-3.959c0.741,-0.265 1.257,-0.941 1.319,-1.725l0.344,-4.35" fill="none" stroke="#18193f" stroke-width="3" stroke-linecap="round" stroke-linejoin="round"></path><path d="M37.959,25.968l1.37,-17.31c0.092,-1.163 -0.827,-2.158 -1.994,-2.158h-26.67c-1.167,0 -2.086,0.995 -1.994,2.158l0.277,3.505" fill="none" stroke="#18193f" stroke-width="3" stroke-linecap="round" stroke-linejoin="round"></path><path d="M17.702,13.439h14.447l-0.951,18.78l-6.655,2.342l-6.927,-2.634v-2.244" fill="none" stroke="#18193f" stroke-width="3" stroke-linecap="round" stroke-linejoin="round"></path><path d="M20.374,23.004h11.302" fill="none" stroke="#18193f" stroke-width="3" stroke-linecap="round" stroke-linejoin="round"></path></g></g></svg>