<svg id="svg" version="1.1" xmlns="http://www.w3.org/2000/svg" xmlns:xlink="http://www.w3.org/1999/xlink" width="400" height="400" viewBox="0, 0, 400,400"><g id="svgg"><path id="path0" d="M109.370 59.172 C 109.166 59.364,107.920 59.624,106.600 59.747 C 104.044 59.987,101.327 60.468,98.400 61.200 C 97.410 61.447,96.103 61.749,95.495 61.871 C 94.887 61.993,94.292 62.251,94.171 62.446 C 94.051 62.641,93.513 62.800,92.976 62.800 C 92.439 62.800,92.000 62.980,92.000 63.200 C 92.000 63.420,91.460 63.600,90.800 63.600 C 90.140 63.600,89.600 63.780,89.600 64.000 C 89.600 64.220,89.060 64.400,88.400 64.400 C 87.740 64.400,87.200 64.580,87.200 64.800 C 87.200 65.020,86.855 65.200,86.433 65.200 C 86.012 65.200,85.607 65.378,85.533 65.597 C 85.460 65.815,84.918 66.033,84.329 66.081 C 83.740 66.130,83.345 66.312,83.452 66.485 C 83.560 66.658,83.187 66.800,82.624 66.800 C 82.061 66.800,81.600 66.980,81.600 67.200 C 81.600 67.420,81.240 67.600,80.800 67.600 C 80.360 67.600,80.000 67.780,80.000 68.000 C 80.000 68.220,79.640 68.400,79.200 68.400 C 78.760 68.400,78.400 68.536,78.400 68.702 C 78.400 68.869,77.815 69.264,77.100 69.580 C 76.385 69.897,75.451 70.480,75.025 70.878 C 74.598 71.275,74.013 71.600,73.725 71.600 C 73.436 71.600,73.200 71.780,73.200 72.000 C 73.200 72.220,72.906 72.400,72.547 72.400 C 72.188 72.400,71.603 72.720,71.247 73.111 C 70.891 73.502,69.752 74.262,68.716 74.801 C 67.681 75.340,66.261 76.280,65.562 76.891 C 64.863 77.501,64.164 78.000,64.008 78.000 C 63.852 78.000,62.702 78.990,61.453 80.200 C 60.204 81.410,59.083 82.400,58.962 82.400 C 58.550 82.400,57.600 83.542,57.600 84.038 C 57.600 84.310,57.488 84.421,57.351 84.285 C 56.966 83.899,53.962 87.214,54.260 87.697 C 54.416 87.949,54.334 88.007,54.062 87.838 C 53.808 87.681,53.600 87.715,53.600 87.913 C 53.600 88.111,52.835 89.093,51.900 90.095 C 48.447 93.797,47.200 95.234,47.199 95.514 C 47.199 95.671,46.659 96.430,46.000 97.200 C 45.341 97.970,44.801 98.825,44.801 99.100 C 44.800 99.375,44.623 99.600,44.408 99.600 C 44.192 99.600,43.904 100.043,43.768 100.584 C 43.633 101.125,43.271 101.775,42.965 102.029 C 42.659 102.283,42.491 102.623,42.591 102.785 C 42.691 102.947,42.419 103.459,41.986 103.923 C 41.554 104.387,41.200 105.044,41.200 105.383 C 41.200 105.722,41.020 106.000,40.800 106.000 C 40.580 106.000,40.400 106.360,40.400 106.800 C 40.400 107.240,40.254 107.600,40.075 107.600 C 39.896 107.600,39.502 108.230,39.200 109.000 C 38.898 109.770,38.504 110.400,38.325 110.400 C 38.146 110.400,38.000 110.760,38.000 111.200 C 38.000 111.640,37.820 112.000,37.600 112.000 C 37.380 112.000,37.200 112.349,37.200 112.776 C 37.200 113.203,37.020 113.664,36.800 113.800 C 36.580 113.936,36.400 114.487,36.400 115.024 C 36.400 115.561,36.220 116.000,36.000 116.000 C 35.780 116.000,35.600 116.349,35.600 116.776 C 35.600 117.203,35.420 117.664,35.200 117.800 C 34.980 117.936,34.800 118.487,34.800 119.024 C 34.800 119.561,34.620 120.000,34.400 120.000 C 34.180 120.000,34.000 120.540,34.000 121.200 C 34.000 121.860,33.820 122.400,33.600 122.400 C 33.380 122.400,33.200 122.940,33.200 123.600 C 33.200 124.260,33.020 124.800,32.800 124.800 C 32.580 124.800,32.400 125.419,32.400 126.176 C 32.400 126.933,32.220 127.664,32.000 127.800 C 31.780 127.936,31.600 128.767,31.600 129.647 C 31.600 130.527,31.453 131.156,31.274 131.045 C 31.094 130.935,30.904 131.689,30.852 132.722 C 30.800 133.755,30.587 134.660,30.379 134.733 C 30.170 134.807,30.000 135.932,30.000 137.233 C 30.000 138.544,29.822 139.600,29.600 139.600 C 29.367 139.600,29.200 140.925,29.200 142.776 C 29.200 144.523,29.020 146.064,28.800 146.200 C 28.305 146.506,28.248 163.600,28.742 163.600 C 28.929 163.600,29.120 164.995,29.164 166.700 C 29.208 168.405,29.415 169.971,29.622 170.180 C 29.830 170.389,30.000 171.424,30.000 172.480 C 30.000 173.536,30.162 174.400,30.360 174.400 C 30.558 174.400,30.816 175.165,30.934 176.100 C 31.272 178.780,31.672 180.564,32.038 181.027 C 32.224 181.261,32.419 182.014,32.471 182.699 C 32.523 183.384,32.709 183.856,32.883 183.749 C 33.057 183.641,33.200 184.193,33.200 184.976 C 33.200 185.759,33.380 186.400,33.600 186.400 C 33.820 186.400,34.000 186.951,34.000 187.624 C 34.000 188.337,34.167 188.744,34.400 188.600 C 34.633 188.456,34.800 188.863,34.800 189.576 C 34.800 190.249,34.980 190.800,35.200 190.800 C 35.420 190.800,35.600 191.160,35.600 191.600 C 35.600 192.040,35.780 192.400,36.000 192.400 C 36.220 192.400,36.400 192.940,36.400 193.600 C 36.400 194.260,36.580 194.800,36.800 194.800 C 37.020 194.800,37.200 195.160,37.200 195.600 C 37.200 196.040,37.380 196.400,37.600 196.400 C 37.820 196.400,38.000 196.749,38.000 197.176 C 38.000 197.603,38.180 198.064,38.400 198.200 C 38.620 198.336,38.800 198.887,38.800 199.424 C 38.800 199.961,38.980 200.400,39.200 200.400 C 39.420 200.400,39.600 200.760,39.600 201.200 C 39.600 201.640,39.780 202.000,40.000 202.000 C 40.220 202.000,40.400 202.360,40.400 202.800 C 40.400 203.240,40.580 203.600,40.800 203.600 C 41.020 203.600,41.200 203.971,41.200 204.424 C 41.200 204.877,41.380 205.136,41.600 205.000 C 41.820 204.864,42.000 205.027,42.000 205.363 C 42.000 206.218,43.275 208.800,43.698 208.800 C 43.890 208.800,43.949 208.960,43.828 209.155 C 43.707 209.350,43.877 209.732,44.204 210.004 C 44.532 210.276,44.800 210.836,44.800 211.249 C 44.800 211.662,44.980 212.000,45.200 212.000 C 45.420 212.000,45.600 212.294,45.600 212.653 C 45.600 213.012,45.915 213.597,46.300 213.953 C 46.685 214.309,47.058 214.870,47.130 215.200 C 47.201 215.530,47.426 215.860,47.630 215.933 C 47.833 216.007,48.000 216.422,48.000 216.857 C 48.000 217.292,48.180 217.536,48.400 217.400 C 48.620 217.264,48.800 217.433,48.800 217.776 C 48.800 218.119,48.980 218.400,49.200 218.400 C 49.420 218.400,49.600 218.760,49.600 219.200 C 49.600 219.640,49.750 220.000,49.932 220.000 C 50.115 220.000,50.520 220.492,50.832 221.094 C 51.470 222.324,52.181 223.267,53.500 224.632 C 53.995 225.144,54.400 225.802,54.400 226.094 C 54.400 226.385,54.760 226.883,55.200 227.200 C 55.640 227.517,56.000 228.025,56.000 228.328 C 56.000 228.631,56.540 229.383,57.200 230.000 C 57.860 230.617,58.403 231.364,58.406 231.660 C 58.410 231.957,58.948 232.830,59.602 233.600 C 60.256 234.370,60.980 235.225,61.211 235.500 C 61.443 235.775,61.515 236.000,61.373 236.000 C 61.232 236.000,61.674 236.522,62.358 237.160 C 63.041 237.799,63.600 238.457,63.600 238.623 C 63.600 238.789,64.320 239.631,65.200 240.493 C 66.080 241.356,66.800 242.219,66.800 242.411 C 66.800 242.603,67.835 243.806,69.100 245.084 C 70.365 246.361,71.652 247.894,71.960 248.490 C 72.268 249.085,72.673 249.478,72.860 249.363 C 73.047 249.247,73.200 249.308,73.200 249.498 C 73.200 250.282,81.658 259.211,82.126 258.922 C 82.345 258.787,82.406 258.866,82.263 259.098 C 81.971 259.571,84.072 262.000,84.773 262.000 C 85.022 262.000,85.346 262.315,85.493 262.700 C 85.929 263.839,90.419 268.035,90.890 267.744 C 91.129 267.597,91.219 267.646,91.091 267.853 C 90.963 268.060,92.488 269.753,94.480 271.615 C 96.472 273.477,98.884 275.765,99.840 276.700 C 100.797 277.635,101.745 278.400,101.948 278.400 C 102.152 278.400,103.672 279.705,105.326 281.300 C 109.438 285.263,113.146 288.567,113.697 288.759 C 113.949 288.847,114.543 289.297,115.018 289.759 C 116.537 291.237,117.996 292.400,118.332 292.400 C 118.512 292.400,119.622 293.300,120.800 294.400 C 121.978 295.500,123.107 296.400,123.310 296.400 C 123.513 296.400,124.183 296.940,124.800 297.600 C 125.417 298.260,126.079 298.800,126.272 298.800 C 126.465 298.800,126.883 299.160,127.200 299.600 C 127.517 300.040,128.017 300.400,128.312 300.400 C 128.606 300.400,128.736 300.580,128.600 300.800 C 128.464 301.020,128.633 301.200,128.976 301.200 C 129.319 301.200,129.600 301.380,129.600 301.600 C 129.600 301.820,129.804 302.000,130.053 302.000 C 130.302 302.000,130.797 302.324,131.153 302.719 C 131.509 303.114,132.430 303.874,133.200 304.408 C 133.970 304.941,135.040 305.780,135.579 306.273 C 136.117 306.765,137.062 307.377,137.679 307.633 C 138.295 307.888,138.800 308.255,138.800 308.449 C 138.800 308.642,139.043 308.800,139.341 308.800 C 139.638 308.800,140.446 309.340,141.137 310.000 C 141.828 310.660,142.486 311.200,142.600 311.200 C 142.714 311.200,143.372 311.740,144.063 312.400 C 144.754 313.060,145.474 313.600,145.663 313.600 C 145.852 313.600,146.572 314.140,147.263 314.800 C 147.954 315.460,148.722 316.000,148.971 316.000 C 149.220 316.000,149.683 316.360,150.000 316.800 C 150.317 317.240,150.815 317.600,151.106 317.600 C 151.398 317.600,152.090 318.053,152.644 318.608 C 153.198 319.162,153.787 319.531,153.953 319.429 C 154.119 319.327,154.507 319.593,154.815 320.021 C 155.124 320.450,155.607 320.800,155.888 320.800 C 156.170 320.800,156.400 320.980,156.400 321.200 C 156.400 321.420,156.604 321.600,156.853 321.600 C 157.102 321.600,157.600 321.915,157.959 322.300 C 158.636 323.026,158.876 323.187,162.200 325.138 C 163.300 325.783,164.740 326.781,165.400 327.355 C 166.060 327.929,166.825 328.399,167.100 328.400 C 167.375 328.400,167.600 328.550,167.600 328.732 C 167.600 328.915,168.095 329.320,168.700 329.632 C 169.305 329.945,170.149 330.515,170.575 330.900 C 171.002 331.285,171.587 331.600,171.875 331.600 C 172.164 331.600,172.400 331.780,172.400 332.000 C 172.400 332.220,172.636 332.400,172.925 332.400 C 173.213 332.400,173.836 332.760,174.308 333.200 C 174.780 333.640,175.455 334.000,175.807 334.000 C 176.159 334.000,176.336 334.180,176.200 334.400 C 176.064 334.620,176.233 334.800,176.576 334.800 C 176.919 334.800,177.200 334.980,177.200 335.200 C 177.200 335.420,177.470 335.600,177.800 335.600 C 178.130 335.600,178.400 335.780,178.400 336.000 C 178.400 336.220,178.760 336.400,179.200 336.400 C 179.640 336.400,180.000 336.580,180.000 336.800 C 180.000 337.020,180.360 337.200,180.800 337.200 C 181.240 337.200,181.600 337.380,181.600 337.600 C 181.600 337.820,181.949 338.000,182.376 338.000 C 182.803 338.000,183.264 338.180,183.400 338.400 C 183.536 338.620,184.087 338.800,184.624 338.800 C 185.161 338.800,185.600 338.960,185.600 339.156 C 185.600 339.497,186.673 339.754,190.200 340.260 C 191.080 340.387,191.988 340.641,192.217 340.825 C 192.447 341.010,195.949 341.161,200.000 341.161 C 204.051 341.161,207.553 341.010,207.783 340.825 C 208.012 340.641,208.920 340.387,209.800 340.260 C 213.327 339.754,214.400 339.497,214.400 339.156 C 214.400 338.960,214.839 338.800,215.376 338.800 C 215.913 338.800,216.464 338.620,216.600 338.400 C 216.736 338.180,217.197 338.000,217.624 338.000 C 218.051 338.000,218.400 337.820,218.400 337.600 C 218.400 337.380,218.760 337.200,219.200 337.200 C 219.640 337.200,220.000 337.020,220.000 336.800 C 220.000 336.580,220.360 336.400,220.800 336.400 C 221.240 336.400,221.600 336.264,221.600 336.098 C 221.600 335.931,222.141 335.556,222.802 335.263 C 223.464 334.970,223.903 334.566,223.779 334.365 C 223.654 334.164,223.923 334.000,224.376 334.000 C 224.829 334.000,225.200 333.820,225.200 333.600 C 225.200 333.380,225.436 333.200,225.725 333.200 C 226.013 333.200,226.598 332.885,227.025 332.500 C 227.451 332.115,228.295 331.545,228.900 331.232 C 229.505 330.920,230.000 330.515,230.000 330.332 C 230.000 330.150,230.320 330.000,230.712 330.000 C 231.103 330.000,231.683 329.640,232.000 329.200 C 232.317 328.760,232.831 328.400,233.141 328.400 C 233.452 328.400,233.997 328.084,234.353 327.697 C 234.709 327.311,235.495 326.740,236.100 326.430 C 236.705 326.119,237.200 325.715,237.200 325.532 C 237.200 325.350,237.444 325.200,237.742 325.200 C 238.039 325.200,238.769 324.750,239.362 324.200 C 239.956 323.650,240.662 323.200,240.932 323.200 C 241.202 323.200,241.683 322.840,242.000 322.400 C 242.317 321.960,242.825 321.600,243.128 321.600 C 243.431 321.600,244.192 321.051,244.818 320.380 C 245.445 319.709,246.073 319.188,246.215 319.221 C 246.356 319.255,246.907 318.904,247.439 318.441 C 247.971 317.978,248.635 317.600,248.915 317.600 C 249.194 317.600,249.683 317.240,250.000 316.800 C 250.317 316.360,250.780 316.000,251.029 316.000 C 251.278 316.000,252.046 315.460,252.737 314.800 C 253.428 314.140,254.129 313.600,254.296 313.600 C 254.599 313.599,256.004 312.492,258.107 310.597 C 258.716 310.049,259.357 309.600,259.531 309.600 C 259.706 309.600,260.215 309.259,260.662 308.843 C 261.109 308.426,261.998 307.806,262.638 307.466 C 263.277 307.125,264.280 306.431,264.866 305.923 C 267.056 304.027,267.617 303.600,267.916 303.600 C 268.085 303.600,268.483 303.240,268.800 302.800 C 269.117 302.360,269.572 302.000,269.810 302.000 C 270.049 302.000,270.954 301.358,271.822 300.573 C 272.690 299.788,274.081 298.528,274.914 297.773 C 275.746 297.018,276.579 296.400,276.765 296.400 C 276.951 296.400,277.845 295.680,278.752 294.800 C 279.659 293.920,280.536 293.200,280.700 293.200 C 280.865 293.199,281.540 292.734,282.200 292.166 C 282.860 291.597,284.021 290.652,284.780 290.066 C 285.538 289.480,286.549 288.595,287.026 288.100 C 287.502 287.605,288.003 287.200,288.139 287.200 C 288.415 287.200,290.413 285.400,294.134 281.800 C 295.498 280.480,297.100 279.148,297.693 278.840 C 298.287 278.532,298.678 278.127,298.563 277.940 C 298.447 277.753,298.535 277.600,298.758 277.600 C 299.136 277.600,301.465 275.556,305.366 271.800 C 306.280 270.920,307.831 269.485,308.814 268.611 C 309.796 267.737,310.555 266.972,310.500 266.911 C 310.445 266.850,310.492 266.802,310.604 266.804 C 311.028 266.812,315.074 262.587,314.917 262.300 C 314.827 262.135,315.033 262.000,315.376 262.000 C 315.719 262.000,315.955 261.775,315.900 261.500 C 315.845 261.225,316.025 261.045,316.300 261.100 C 316.575 261.155,316.755 261.038,316.700 260.840 C 316.645 260.642,316.749 260.474,316.930 260.466 C 317.112 260.459,317.615 260.036,318.049 259.526 C 318.802 258.641,323.088 253.952,326.700 250.061 C 327.635 249.054,328.400 248.082,328.400 247.902 C 328.400 247.723,329.480 246.492,330.800 245.168 C 332.120 243.844,333.200 242.589,333.200 242.379 C 333.200 242.169,333.920 241.347,334.800 240.552 C 335.680 239.757,336.400 238.930,336.400 238.714 C 336.400 238.498,336.959 237.799,337.642 237.160 C 338.326 236.522,338.768 236.000,338.627 236.000 C 338.485 236.000,338.557 235.775,338.789 235.500 C 339.020 235.225,339.744 234.370,340.398 233.600 C 341.052 232.830,341.590 231.957,341.594 231.660 C 341.597 231.364,342.140 230.617,342.800 230.000 C 343.460 229.383,344.000 228.631,344.000 228.328 C 344.000 228.025,344.360 227.517,344.800 227.200 C 345.240 226.883,345.600 226.385,345.600 226.094 C 345.600 225.802,346.005 225.144,346.500 224.632 C 347.819 223.267,348.530 222.324,349.168 221.094 C 349.480 220.492,349.885 220.000,350.068 220.000 C 350.250 220.000,350.400 219.680,350.400 219.288 C 350.400 218.897,350.750 218.324,351.179 218.015 C 351.607 217.707,351.881 217.330,351.787 217.179 C 351.693 217.027,351.969 216.497,352.400 216.000 C 352.831 215.503,353.107 214.973,353.013 214.821 C 352.919 214.670,353.193 214.293,353.621 213.985 C 354.050 213.676,354.400 213.103,354.400 212.712 C 354.400 212.320,354.580 212.000,354.800 212.000 C 355.020 212.000,355.200 211.651,355.200 211.224 C 355.200 210.797,355.383 210.334,355.608 210.195 C 356.170 209.848,358.000 206.171,358.000 205.390 C 358.000 205.039,358.180 204.864,358.400 205.000 C 358.620 205.136,358.800 204.877,358.800 204.424 C 358.800 203.971,358.980 203.600,359.200 203.600 C 359.420 203.600,359.600 203.240,359.600 202.800 C 359.600 202.360,359.780 202.000,360.000 202.000 C 360.220 202.000,360.400 201.640,360.400 201.200 C 360.400 200.760,360.580 200.400,360.800 200.400 C 361.020 200.400,361.200 199.961,361.200 199.424 C 361.200 198.887,361.380 198.336,361.600 198.200 C 361.820 198.064,362.000 197.603,362.000 197.176 C 362.000 196.749,362.180 196.400,362.400 196.400 C 362.620 196.400,362.800 196.040,362.800 195.600 C 362.800 195.160,362.980 194.800,363.200 194.800 C 363.420 194.800,363.600 194.260,363.600 193.600 C 363.600 192.940,363.780 192.400,364.000 192.400 C 364.220 192.400,364.400 192.040,364.400 191.600 C 364.400 191.160,364.580 190.800,364.800 190.800 C 365.020 190.800,365.200 190.249,365.200 189.576 C 365.200 188.863,365.367 188.456,365.600 188.600 C 365.833 188.744,366.000 188.337,366.000 187.624 C 366.000 186.951,366.180 186.400,366.400 186.400 C 366.620 186.400,366.800 185.759,366.800 184.976 C 366.800 184.193,366.943 183.641,367.117 183.749 C 367.291 183.856,367.477 183.384,367.529 182.699 C 367.581 182.014,367.776 181.261,367.962 181.027 C 368.328 180.564,368.728 178.780,369.066 176.100 C 369.184 175.165,369.442 174.400,369.640 174.400 C 369.838 174.400,370.000 173.511,370.000 172.424 C 370.000 171.337,370.180 170.336,370.400 170.200 C 370.620 170.064,370.800 168.624,370.800 167.000 C 370.800 165.376,370.972 163.941,371.183 163.811 C 371.693 163.495,371.693 146.905,371.183 146.589 C 370.972 146.459,370.800 144.833,370.800 142.976 C 370.800 140.992,370.635 139.600,370.400 139.600 C 370.178 139.600,370.000 138.544,370.000 137.233 C 370.000 135.932,369.830 134.807,369.621 134.733 C 369.413 134.660,369.200 133.755,369.148 132.722 C 369.096 131.689,368.925 130.923,368.768 131.020 C 368.612 131.116,368.371 130.432,368.232 129.498 C 367.613 125.315,367.495 124.800,367.158 124.800 C 366.961 124.800,366.800 124.260,366.800 123.600 C 366.800 122.940,366.620 122.400,366.400 122.400 C 366.180 122.400,366.000 121.860,366.000 121.200 C 366.000 120.540,365.820 120.000,365.600 120.000 C 365.380 120.000,365.200 119.561,365.200 119.024 C 365.200 118.487,365.020 117.936,364.800 117.800 C 364.580 117.664,364.400 117.203,364.400 116.776 C 364.400 116.349,364.220 116.000,364.000 116.000 C 363.780 116.000,363.600 115.561,363.600 115.024 C 363.600 114.487,363.420 113.936,363.200 113.800 C 362.980 113.664,362.800 113.203,362.800 112.776 C 362.800 112.349,362.620 112.000,362.400 112.000 C 362.180 112.000,362.000 111.640,362.000 111.200 C 362.000 110.760,361.854 110.400,361.675 110.400 C 361.496 110.400,361.102 109.770,360.800 109.000 C 360.498 108.230,360.104 107.600,359.925 107.600 C 359.746 107.600,359.600 107.240,359.600 106.800 C 359.600 106.360,359.420 106.000,359.200 106.000 C 358.980 106.000,358.800 105.722,358.800 105.383 C 358.800 105.044,358.446 104.387,358.014 103.923 C 357.581 103.459,357.309 102.947,357.409 102.785 C 357.509 102.623,357.341 102.283,357.035 102.029 C 356.729 101.775,356.367 101.125,356.232 100.584 C 356.096 100.043,355.808 99.600,355.592 99.600 C 355.377 99.600,355.200 99.375,355.199 99.100 C 355.199 98.825,354.659 97.970,354.000 97.200 C 353.341 96.430,352.801 95.564,352.801 95.276 C 352.800 94.988,352.620 94.864,352.400 95.000 C 352.180 95.136,352.000 95.075,352.000 94.865 C 352.000 94.456,350.837 93.035,348.100 90.097 C 347.165 89.094,346.400 88.031,346.400 87.736 C 346.400 87.441,346.124 87.200,345.787 87.200 C 345.451 87.200,345.054 86.885,344.907 86.501 C 344.543 85.552,342.943 83.991,342.642 84.291 C 342.509 84.424,342.400 84.223,342.400 83.843 C 342.400 83.463,342.220 83.264,342.000 83.400 C 341.780 83.536,341.600 83.367,341.600 83.024 C 341.600 82.681,341.453 82.400,341.273 82.400 C 341.093 82.400,339.882 81.410,338.582 80.200 C 337.282 78.990,336.103 78.000,335.963 78.000 C 335.823 78.000,335.099 77.465,334.354 76.811 C 333.609 76.158,332.505 75.416,331.900 75.163 C 331.295 74.910,330.800 74.545,330.800 74.351 C 330.800 74.158,330.480 74.000,330.088 74.000 C 329.697 74.000,329.117 73.640,328.800 73.200 C 328.483 72.760,327.903 72.400,327.512 72.400 C 327.120 72.400,326.800 72.220,326.800 72.000 C 326.800 71.780,326.564 71.600,326.275 71.600 C 325.987 71.600,325.364 71.240,324.892 70.800 C 324.420 70.360,323.846 70.000,323.617 70.000 C 323.388 70.000,323.200 69.820,323.200 69.600 C 323.200 69.380,322.840 69.200,322.400 69.200 C 321.960 69.200,321.600 69.020,321.600 68.800 C 321.600 68.580,321.240 68.400,320.800 68.400 C 320.360 68.400,320.000 68.220,320.000 68.000 C 320.000 67.780,319.640 67.600,319.200 67.600 C 318.760 67.600,318.400 67.420,318.400 67.200 C 318.400 66.980,318.040 66.800,317.600 66.800 C 317.160 66.800,316.800 66.620,316.800 66.400 C 316.800 66.180,316.361 66.000,315.824 66.000 C 315.287 66.000,314.736 65.820,314.600 65.600 C 314.464 65.380,314.003 65.200,313.576 65.200 C 313.149 65.200,312.800 65.020,312.800 64.800 C 312.800 64.580,312.260 64.400,311.600 64.400 C 310.940 64.400,310.400 64.220,310.400 64.000 C 310.400 63.780,309.961 63.600,309.424 63.600 C 308.887 63.600,308.336 63.420,308.200 63.200 C 308.064 62.980,307.524 62.800,307.000 62.800 C 306.476 62.800,305.936 62.620,305.800 62.400 C 305.664 62.180,305.124 62.000,304.600 62.000 C 304.076 62.000,303.548 61.839,303.426 61.642 C 303.215 61.301,302.458 61.138,298.400 60.565 C 297.410 60.425,296.420 60.179,296.200 60.018 C 295.980 59.857,294.933 59.688,293.874 59.643 C 292.815 59.598,291.509 59.394,290.972 59.190 C 289.717 58.712,268.871 58.734,267.975 59.214 C 267.602 59.413,266.285 59.610,265.048 59.650 C 263.812 59.690,262.800 59.876,262.800 60.062 C 262.800 60.248,261.990 60.400,261.000 60.400 C 260.010 60.400,259.200 60.542,259.200 60.715 C 259.200 60.888,258.627 61.073,257.927 61.127 C 257.226 61.180,256.461 61.363,256.227 61.533 C 255.992 61.703,255.170 61.894,254.400 61.958 C 253.630 62.022,252.940 62.237,252.867 62.437 C 252.793 62.637,252.208 62.800,251.567 62.800 C 250.925 62.800,250.400 62.980,250.400 63.200 C 250.400 63.420,249.860 63.600,249.200 63.600 C 248.540 63.600,248.000 63.780,248.000 64.000 C 248.000 64.220,247.561 64.400,247.024 64.400 C 246.487 64.400,245.936 64.580,245.800 64.800 C 245.664 65.020,245.193 65.200,244.753 65.200 C 244.313 65.200,244.064 65.380,244.200 65.600 C 244.340 65.826,244.012 66.000,243.447 66.000 C 242.897 66.000,242.336 66.180,242.200 66.400 C 242.064 66.620,241.603 66.800,241.176 66.800 C 240.749 66.800,240.400 66.980,240.400 67.200 C 240.400 67.420,240.040 67.600,239.600 67.600 C 239.160 67.600,238.799 67.735,238.797 67.900 C 238.793 68.259,236.856 69.200,236.120 69.200 C 235.834 69.200,235.600 69.380,235.600 69.600 C 235.600 69.820,235.229 70.000,234.776 70.000 C 234.323 70.000,234.045 70.150,234.158 70.332 C 234.271 70.515,233.742 70.909,232.982 71.207 C 232.222 71.505,231.600 71.896,231.600 72.075 C 231.600 72.254,231.280 72.400,230.888 72.400 C 230.497 72.400,229.917 72.760,229.600 73.200 C 229.283 73.640,228.703 74.000,228.312 74.000 C 227.920 74.000,227.600 74.141,227.600 74.314 C 227.600 74.486,227.015 74.972,226.300 75.394 C 225.585 75.815,224.651 76.484,224.225 76.880 C 223.798 77.276,223.285 77.600,223.085 77.600 C 222.885 77.600,222.242 78.095,221.657 78.700 C 221.071 79.305,220.348 79.852,220.050 79.915 C 219.752 79.979,218.853 80.705,218.054 81.528 C 217.254 82.352,215.970 83.466,215.200 84.004 C 213.315 85.322,211.995 86.662,212.291 86.958 C 212.424 87.091,212.223 87.200,211.843 87.200 C 211.463 87.200,211.264 87.380,211.400 87.600 C 211.536 87.820,211.412 88.002,211.124 88.004 C 210.836 88.006,210.150 88.581,209.600 89.283 C 209.050 89.984,208.015 91.146,207.300 91.866 C 206.585 92.585,206.000 93.268,206.000 93.385 C 206.000 93.501,205.100 94.515,204.000 95.639 C 202.900 96.762,202.000 97.851,202.000 98.059 C 202.000 98.266,201.550 98.886,201.000 99.436 L 200.000 100.436 199.000 99.436 C 198.450 98.886,198.000 98.266,198.000 98.059 C 198.000 97.851,197.100 96.762,196.000 95.639 C 194.900 94.515,194.000 93.406,194.000 93.174 C 194.000 92.943,193.820 92.864,193.600 93.000 C 193.380 93.136,193.200 93.102,193.200 92.924 C 193.199 92.746,192.734 92.060,192.166 91.400 C 191.598 90.740,190.743 89.707,190.266 89.104 C 189.790 88.501,189.145 88.006,188.833 88.004 C 188.522 88.002,188.375 87.892,188.507 87.760 C 188.798 87.468,186.716 85.352,184.805 83.999 C 184.038 83.455,182.535 82.153,181.465 81.105 C 180.395 80.057,179.307 79.200,179.048 79.200 C 178.789 79.200,178.317 78.840,178.000 78.400 C 177.683 77.960,177.193 77.600,176.912 77.600 C 176.630 77.600,176.400 77.420,176.400 77.200 C 176.400 76.980,176.130 76.800,175.800 76.800 C 175.470 76.800,175.200 76.661,175.200 76.491 C 175.200 76.321,174.570 75.843,173.800 75.428 C 173.030 75.013,172.400 74.522,172.400 74.337 C 172.400 74.152,172.040 74.000,171.600 74.000 C 171.160 74.000,170.800 73.820,170.800 73.600 C 170.800 73.380,170.519 73.200,170.176 73.200 C 169.833 73.200,169.664 73.020,169.800 72.800 C 169.936 72.580,169.677 72.400,169.224 72.400 C 168.771 72.400,168.400 72.220,168.400 72.000 C 168.400 71.780,168.080 71.600,167.688 71.600 C 167.297 71.600,166.717 71.240,166.400 70.800 C 166.083 70.360,165.503 70.000,165.112 70.000 C 164.720 70.000,164.400 69.820,164.400 69.600 C 164.400 69.380,164.040 69.200,163.600 69.200 C 163.160 69.200,162.800 69.020,162.800 68.800 C 162.800 68.580,162.440 68.400,162.000 68.400 C 161.560 68.400,161.200 68.220,161.200 68.000 C 161.200 67.780,160.840 67.600,160.400 67.600 C 159.960 67.600,159.600 67.458,159.600 67.285 C 159.600 67.112,159.198 66.940,158.706 66.903 C 158.214 66.866,157.749 66.648,157.673 66.418 C 157.596 66.188,157.188 66.000,156.767 66.000 C 156.345 66.000,156.000 65.820,156.000 65.600 C 156.000 65.380,155.651 65.200,155.224 65.200 C 154.797 65.200,154.336 65.020,154.200 64.800 C 154.064 64.580,153.513 64.400,152.976 64.400 C 152.439 64.400,152.000 64.259,152.000 64.087 C 152.000 63.915,151.505 63.734,150.900 63.684 C 150.295 63.634,149.740 63.415,149.667 63.197 C 149.593 62.978,149.008 62.800,148.367 62.800 C 147.725 62.800,147.200 62.620,147.200 62.400 C 147.200 62.180,146.480 62.000,145.600 62.000 C 144.720 62.000,144.000 61.820,144.000 61.600 C 144.000 61.380,143.280 61.200,142.400 61.200 C 141.520 61.200,140.800 61.038,140.800 60.840 C 140.800 60.642,140.035 60.378,139.100 60.252 C 138.165 60.126,136.140 59.820,134.600 59.572 C 131.176 59.022,109.884 58.684,109.370 59.172 M130.176 79.231 C 137.187 80.477,140.394 81.283,145.400 83.057 C 148.495 84.153,156.034 87.705,157.600 88.804 C 158.150 89.190,159.320 89.907,160.200 90.396 C 163.574 92.272,169.599 97.187,174.419 101.994 C 179.667 107.229,180.259 107.888,183.231 111.800 C 187.051 116.829,188.348 118.650,189.192 120.169 C 194.516 129.751,200.802 131.902,206.700 126.160 C 207.635 125.250,208.400 124.379,208.400 124.225 C 208.400 124.070,208.940 123.159,209.600 122.200 C 210.260 121.241,210.800 120.291,210.800 120.090 C 210.800 119.889,211.160 119.398,211.600 119.000 C 212.040 118.602,212.400 118.130,212.400 117.952 C 212.400 117.639,217.492 110.705,219.551 108.213 C 221.752 105.549,230.755 96.885,233.200 95.078 C 234.630 94.020,236.117 92.895,236.505 92.578 C 236.892 92.260,237.387 92.000,237.605 92.000 C 237.822 92.000,238.000 91.850,238.000 91.668 C 238.000 91.485,238.495 91.080,239.100 90.768 C 239.705 90.456,240.290 90.111,240.400 90.001 C 241.354 89.044,251.051 84.297,254.600 83.049 C 259.827 81.211,263.752 80.240,270.200 79.187 C 275.003 78.403,290.075 79.023,294.400 80.181 C 294.950 80.329,296.210 80.640,297.200 80.874 C 310.373 83.984,324.513 92.915,333.497 103.800 C 337.524 108.679,337.473 108.613,338.029 109.668 C 338.299 110.181,338.628 110.690,338.760 110.800 C 338.982 110.985,339.439 111.746,340.562 113.800 C 340.803 114.240,341.100 114.690,341.222 114.800 C 341.616 115.155,345.600 123.487,345.600 123.957 C 345.600 124.206,345.782 124.723,346.003 125.105 C 350.570 132.969,352.890 157.260,350.222 169.277 C 348.039 179.109,344.810 188.207,341.092 195.000 C 340.851 195.440,339.999 197.060,339.199 198.600 C 336.890 203.046,328.974 215.645,328.016 216.400 C 327.876 216.510,327.329 217.230,326.800 218.000 C 326.271 218.770,325.731 219.490,325.600 219.600 C 325.469 219.710,324.929 220.430,324.400 221.200 C 323.871 221.970,323.329 222.690,323.196 222.800 C 323.063 222.910,322.694 223.377,322.377 223.837 C 316.795 231.938,296.954 252.584,282.208 265.636 C 281.112 266.606,279.982 267.617,279.698 267.881 C 279.413 268.146,278.330 269.045,277.290 269.880 C 276.251 270.714,275.130 271.671,274.800 272.006 C 274.470 272.341,273.210 273.419,272.000 274.402 C 270.790 275.385,269.710 276.297,269.600 276.430 C 269.490 276.562,267.060 278.509,264.200 280.757 C 261.340 283.005,258.729 285.059,258.399 285.322 C 258.068 285.585,256.988 286.425,255.999 287.190 C 255.009 287.954,254.110 288.683,254.000 288.809 C 253.890 288.935,253.170 289.477,252.400 290.014 C 251.630 290.550,250.730 291.209,250.400 291.478 C 250.070 291.747,248.540 292.886,247.000 294.009 C 245.460 295.132,243.750 296.391,243.200 296.808 C 240.778 298.641,236.239 301.846,231.800 304.856 C 229.160 306.647,226.628 308.446,226.174 308.856 C 225.720 309.265,225.135 309.600,224.874 309.600 C 224.613 309.600,224.400 309.750,224.400 309.932 C 224.400 310.115,223.905 310.520,223.300 310.832 C 222.695 311.144,222.110 311.509,222.000 311.643 C 221.519 312.231,211.351 318.555,209.742 319.267 C 203.819 321.887,196.176 321.885,190.246 319.261 C 188.543 318.508,171.796 307.483,165.000 302.641 C 160.120 299.164,151.172 292.650,150.657 292.200 C 150.406 291.980,149.120 290.990,147.800 290.001 C 146.480 289.012,145.310 288.109,145.200 287.996 C 145.090 287.882,143.110 286.357,140.800 284.607 C 137.154 281.845,134.465 279.684,130.396 276.248 C 129.844 275.781,128.404 274.592,127.196 273.605 C 125.988 272.619,124.910 271.719,124.800 271.605 C 124.690 271.492,123.521 270.500,122.203 269.400 C 107.866 257.438,83.894 232.938,77.623 223.837 C 77.306 223.377,76.937 222.910,76.804 222.800 C 76.671 222.690,76.123 221.970,75.586 221.200 C 75.050 220.430,74.396 219.530,74.132 219.200 C 70.025 214.063,63.200 203.428,60.398 197.800 C 59.631 196.260,58.868 194.940,58.702 194.867 C 58.536 194.793,58.400 194.521,58.400 194.262 C 58.400 194.003,57.685 192.353,56.810 190.596 C 55.936 188.838,55.216 187.121,55.210 186.780 C 55.205 186.439,55.038 185.989,54.841 185.780 C 54.138 185.037,50.933 174.830,50.010 170.400 C 47.092 156.383,48.735 137.615,53.985 125.000 C 56.012 120.130,58.473 115.042,58.886 114.867 C 59.059 114.793,59.200 114.562,59.200 114.353 C 59.200 112.636,68.289 101.153,72.624 97.393 C 74.142 96.077,75.748 94.666,76.192 94.257 C 82.916 88.075,101.717 79.737,109.306 79.572 C 110.018 79.556,110.960 79.389,111.400 79.200 C 112.563 78.700,127.326 78.724,130.176 79.231 " stroke="none" fill="#fb5b5b" fill-rule="evenodd"></path><path id="path1" d="M118.200 79.401 C 117.980 79.506,115.910 79.765,113.600 79.977 C 107.632 80.523,102.779 81.546,97.400 83.391 C 94.824 84.274,87.714 87.545,86.338 88.479 C 85.754 88.876,85.079 89.200,84.838 89.200 C 84.597 89.200,84.400 89.380,84.400 89.600 C 84.400 89.820,84.210 90.000,83.978 90.000 C 83.528 90.000,78.960 93.001,78.065 93.884 C 77.771 94.174,76.880 94.904,76.084 95.506 C 73.555 97.418,69.612 101.308,67.269 104.200 C 66.022 105.740,64.897 107.090,64.769 107.200 C 64.249 107.646,60.400 113.591,60.400 113.949 C 60.400 114.160,60.263 114.393,60.095 114.467 C 59.834 114.581,56.163 121.834,55.170 124.200 C 53.758 127.560,51.606 135.464,50.811 140.200 C 50.553 141.740,50.175 143.975,49.971 145.167 C 49.459 148.157,49.504 161.926,50.036 165.154 C 51.154 171.930,53.290 180.029,55.165 184.600 C 56.085 186.842,56.526 187.864,56.847 188.495 C 57.041 188.877,57.200 189.462,57.200 189.795 C 57.200 190.128,57.380 190.400,57.600 190.400 C 57.820 190.400,58.000 190.645,58.000 190.944 C 58.000 191.448,60.342 196.350,60.798 196.800 C 60.909 196.910,61.377 197.720,61.838 198.600 C 62.300 199.480,63.065 200.875,63.538 201.700 C 64.012 202.525,64.733 203.785,65.139 204.500 C 65.942 205.912,68.951 210.456,72.343 215.380 C 74.346 218.287,75.202 219.430,76.213 220.545 C 76.440 220.795,77.067 221.630,77.606 222.400 C 78.145 223.170,78.970 224.250,79.440 224.800 C 79.910 225.350,81.795 227.600,83.628 229.800 C 85.462 232.000,87.063 233.890,87.187 234.000 C 87.310 234.110,88.759 235.724,90.406 237.586 C 94.271 241.956,108.044 255.729,112.414 259.594 C 114.276 261.241,115.890 262.683,116.000 262.798 C 116.110 262.913,117.635 264.265,119.389 265.804 C 121.144 267.342,122.984 268.993,123.480 269.473 C 123.976 269.953,125.061 270.851,125.891 271.468 C 126.721 272.086,127.670 272.873,128.000 273.217 C 128.330 273.561,131.030 275.787,134.000 278.163 C 136.970 280.538,139.760 282.781,140.200 283.147 C 140.640 283.512,141.630 284.250,142.400 284.786 C 143.170 285.323,143.890 285.861,144.000 285.983 C 144.110 286.105,144.830 286.678,145.600 287.257 C 146.370 287.836,147.450 288.706,148.000 289.190 C 148.550 289.674,149.495 290.363,150.100 290.721 C 150.705 291.080,151.200 291.514,151.200 291.686 C 151.200 291.859,151.470 292.000,151.800 292.000 C 152.130 292.000,152.400 292.141,152.400 292.314 C 152.400 292.486,152.895 292.925,153.500 293.289 C 154.105 293.653,155.050 294.316,155.600 294.763 C 157.085 295.969,161.721 299.293,165.800 302.076 C 167.780 303.427,169.490 304.661,169.600 304.819 C 170.029 305.433,188.703 317.554,190.400 318.320 C 199.352 322.362,206.080 321.195,217.325 313.650 C 219.662 312.083,221.759 310.800,221.987 310.800 C 222.214 310.800,222.400 310.650,222.400 310.468 C 222.400 310.285,222.895 309.880,223.500 309.568 C 224.105 309.255,224.949 308.685,225.375 308.300 C 225.802 307.915,226.372 307.600,226.642 307.600 C 226.912 307.600,227.193 307.453,227.267 307.272 C 227.340 307.092,228.570 306.161,230.000 305.202 C 231.430 304.244,232.690 303.348,232.800 303.212 C 232.910 303.075,234.800 301.719,237.000 300.199 C 240.384 297.860,244.294 295.028,250.163 290.665 C 250.803 290.189,251.523 289.614,251.763 289.387 C 252.004 289.160,252.830 288.532,253.600 287.992 C 254.370 287.453,255.360 286.711,255.800 286.344 C 256.240 285.977,258.670 284.034,261.200 282.027 C 263.730 280.020,266.070 278.155,266.400 277.883 C 266.730 277.611,267.803 276.761,268.784 275.994 C 269.766 275.228,270.977 274.207,271.475 273.727 C 271.974 273.247,273.061 272.349,273.891 271.732 C 274.721 271.114,275.670 270.334,276.000 269.999 C 276.330 269.663,278.040 268.131,279.800 266.594 C 281.560 265.057,283.090 263.708,283.200 263.594 C 283.310 263.481,284.927 262.041,286.794 260.394 C 291.197 256.509,306.649 241.064,310.000 237.199 C 311.429 235.550,312.692 234.110,312.805 234.000 C 312.919 233.890,314.089 232.540,315.406 231.000 C 316.723 229.460,317.895 228.110,318.010 228.000 C 318.126 227.890,318.841 226.990,319.600 226.000 C 320.359 225.010,321.074 224.110,321.190 224.000 C 321.305 223.890,322.028 222.990,322.794 222.000 C 323.561 221.010,324.416 219.930,324.693 219.600 C 326.009 218.035,334.800 204.945,334.800 204.551 C 334.800 204.437,335.301 203.592,335.912 202.672 C 336.524 201.752,337.289 200.460,337.612 199.800 C 337.935 199.140,338.293 198.510,338.409 198.400 C 338.839 197.991,342.006 191.381,342.003 190.900 C 342.001 190.625,342.180 190.400,342.400 190.400 C 342.620 190.400,342.800 190.128,342.800 189.795 C 342.800 189.462,342.965 188.877,343.167 188.495 C 345.241 184.574,348.201 175.205,349.200 169.400 C 349.465 167.860,349.843 165.736,350.041 164.680 C 350.515 162.144,350.503 147.924,350.024 145.167 C 349.817 143.975,349.438 141.650,349.183 140.000 C 348.377 134.790,345.016 123.364,343.953 122.220 C 343.759 122.011,343.600 121.516,343.600 121.120 C 343.600 120.724,343.420 120.400,343.200 120.400 C 342.980 120.400,342.800 120.040,342.800 119.600 C 342.800 119.160,342.620 118.800,342.400 118.800 C 342.180 118.800,342.000 118.440,342.000 118.000 C 342.000 117.560,341.864 117.200,341.698 117.200 C 341.531 117.200,341.141 116.615,340.829 115.900 C 338.464 110.467,329.680 99.912,323.600 95.196 C 322.610 94.428,321.710 93.695,321.600 93.568 C 319.750 91.420,307.300 84.845,301.800 83.112 C 296.178 81.340,292.244 80.541,286.473 80.001 C 284.204 79.788,282.224 79.545,282.073 79.461 C 281.666 79.232,268.511 80.308,266.200 80.759 C 263.224 81.340,259.782 82.224,257.000 83.120 C 253.725 84.176,244.543 88.171,244.000 88.777 C 243.890 88.900,243.395 89.225,242.900 89.500 C 240.665 90.741,240.192 91.043,239.445 91.700 C 239.007 92.085,238.413 92.400,238.125 92.400 C 237.836 92.400,237.600 92.541,237.600 92.714 C 237.600 92.886,237.105 93.320,236.500 93.679 C 235.895 94.037,235.011 94.660,234.536 95.065 C 234.061 95.469,232.891 96.419,231.936 97.175 C 228.894 99.584,220.680 108.078,217.929 111.660 C 214.714 115.846,209.600 123.414,209.600 123.987 C 209.600 124.214,209.420 124.400,209.200 124.400 C 208.980 124.400,208.800 124.633,208.800 124.919 C 208.800 125.567,205.938 128.400,205.283 128.400 C 205.017 128.400,204.800 128.580,204.800 128.800 C 204.800 129.020,204.451 129.200,204.024 129.200 C 203.597 129.200,203.136 129.380,203.000 129.600 C 202.864 129.820,201.514 130.000,200.000 130.000 C 198.486 130.000,197.136 129.820,197.000 129.600 C 196.864 129.380,196.403 129.200,195.976 129.200 C 195.549 129.200,195.200 129.020,195.200 128.800 C 195.200 128.580,194.949 128.400,194.641 128.400 C 194.141 128.400,193.287 127.545,191.100 124.853 C 190.715 124.379,190.400 123.898,190.400 123.784 C 190.400 123.399,184.010 114.035,181.897 111.324 C 179.546 108.307,170.728 99.288,168.064 97.176 C 167.109 96.419,165.939 95.469,165.464 95.065 C 164.989 94.660,164.105 94.037,163.500 93.679 C 162.895 93.320,162.400 92.886,162.400 92.714 C 162.400 92.541,162.130 92.400,161.800 92.400 C 161.470 92.400,161.200 92.220,161.200 92.000 C 161.200 91.780,160.930 91.600,160.600 91.600 C 160.270 91.600,160.000 91.441,160.000 91.247 C 160.000 91.052,159.685 90.790,159.300 90.664 C 158.915 90.538,157.700 89.888,156.600 89.219 C 150.632 85.588,141.711 82.281,133.800 80.767 C 130.102 80.060,118.880 79.077,118.200 79.401 " stroke="none" fill="#fb5b5c" fill-rule="evenodd"></path><path id="path2" d="M111.400 79.222 C 110.879 79.461,111.576 79.503,113.400 79.345 C 114.940 79.211,116.275 79.034,116.367 78.951 C 116.724 78.628,112.154 78.877,111.400 79.222 M124.833 78.951 C 124.925 79.034,126.260 79.205,127.800 79.332 C 129.568 79.478,130.231 79.437,129.600 79.221 C 128.621 78.887,124.504 78.653,124.833 78.951 M270.400 79.217 C 269.785 79.425,270.554 79.466,272.400 79.325 C 274.050 79.199,275.475 79.029,275.567 78.948 C 275.899 78.653,271.374 78.889,270.400 79.217 M283.233 78.944 C 283.325 79.024,284.750 79.194,286.400 79.323 C 288.253 79.467,289.094 79.422,288.600 79.206 C 287.847 78.877,282.875 78.634,283.233 78.944 M106.600 80.000 L 105.800 80.344 106.600 80.332 C 107.040 80.326,107.850 80.176,108.400 80.000 L 109.400 79.680 108.400 79.668 C 107.850 79.662,107.040 79.811,106.600 80.000 M132.600 80.000 C 133.260 80.168,134.160 80.314,134.600 80.325 L 135.400 80.344 134.600 80.000 C 134.160 79.811,133.260 79.665,132.600 79.675 L 131.400 79.695 132.600 80.000 M265.400 80.000 L 264.600 80.344 265.400 80.332 C 265.840 80.326,266.650 80.176,267.200 80.000 L 268.200 79.680 267.200 79.668 C 266.650 79.662,265.840 79.811,265.400 80.000 M290.833 79.747 C 290.925 79.828,291.720 80.014,292.600 80.162 C 293.746 80.354,294.030 80.314,293.600 80.021 C 293.060 79.653,290.432 79.393,290.833 79.747 M103.000 80.800 L 102.200 81.144 103.000 81.144 C 103.440 81.144,104.160 80.989,104.600 80.800 L 105.400 80.456 104.600 80.456 C 104.160 80.456,103.440 80.611,103.000 80.800 M136.600 80.800 C 137.040 80.989,137.760 81.144,138.200 81.144 L 139.000 81.144 138.200 80.800 C 137.760 80.611,137.040 80.456,136.600 80.456 L 135.800 80.456 136.600 80.800 M261.800 80.800 L 261.000 81.144 261.800 81.144 C 262.240 81.144,262.960 80.989,263.400 80.800 L 264.200 80.456 263.400 80.456 C 262.960 80.456,262.240 80.611,261.800 80.800 M295.400 80.800 C 295.840 80.989,296.560 81.144,297.000 81.144 L 297.800 81.144 297.000 80.800 C 296.560 80.611,295.840 80.456,295.400 80.456 L 294.600 80.456 295.400 80.800 M100.200 81.600 C 99.696 81.817,99.622 81.944,100.000 81.944 C 100.330 81.944,100.960 81.789,101.400 81.600 C 101.904 81.383,101.978 81.256,101.600 81.256 C 101.270 81.256,100.640 81.411,100.200 81.600 M139.800 81.600 C 140.240 81.789,140.870 81.944,141.200 81.944 C 141.578 81.944,141.504 81.817,141.000 81.600 C 140.560 81.411,139.930 81.256,139.600 81.256 C 139.222 81.256,139.296 81.383,139.800 81.600 M259.000 81.600 C 258.496 81.817,258.422 81.944,258.800 81.944 C 259.130 81.944,259.760 81.789,260.200 81.600 C 260.704 81.383,260.778 81.256,260.400 81.256 C 260.070 81.256,259.440 81.411,259.000 81.600 M298.800 81.600 C 299.130 81.813,299.670 81.988,300.000 81.988 C 300.533 81.988,300.533 81.945,300.000 81.600 C 299.670 81.387,299.130 81.212,298.800 81.212 C 298.267 81.212,298.267 81.255,298.800 81.600 M97.600 82.400 C 97.067 82.745,97.067 82.788,97.600 82.788 C 97.930 82.788,98.470 82.613,98.800 82.400 C 99.333 82.055,99.333 82.012,98.800 82.012 C 98.470 82.012,97.930 82.187,97.600 82.400 M142.400 82.400 C 142.730 82.613,143.270 82.788,143.600 82.788 C 144.133 82.788,144.133 82.745,143.600 82.400 C 143.270 82.187,142.730 82.012,142.400 82.012 C 141.867 82.012,141.867 82.055,142.400 82.400 M256.400 82.400 C 255.867 82.745,255.867 82.788,256.400 82.788 C 256.730 82.788,257.270 82.613,257.600 82.400 C 258.133 82.055,258.133 82.012,257.600 82.012 C 257.270 82.012,256.730 82.187,256.400 82.400 M301.200 82.400 C 301.530 82.613,302.070 82.788,302.400 82.788 C 302.933 82.788,302.933 82.745,302.400 82.400 C 302.070 82.187,301.530 82.012,301.200 82.012 C 300.667 82.012,300.667 82.055,301.200 82.400 M94.000 83.755 C 87.645 86.416,75.600 93.759,75.600 94.971 C 75.600 95.126,76.365 94.632,77.300 93.873 C 81.425 90.522,88.388 86.580,96.000 83.287 C 96.550 83.049,96.820 82.850,96.600 82.844 C 96.380 82.838,95.210 83.248,94.000 83.755 M144.400 82.937 C 144.400 83.012,145.705 83.582,147.300 84.203 C 150.130 85.306,156.197 88.290,158.600 89.760 L 159.800 90.495 158.800 89.643 C 156.817 87.955,144.400 82.172,144.400 82.937 M251.766 84.147 C 249.987 84.880,247.107 86.252,245.366 87.197 C 243.625 88.141,241.796 89.113,241.303 89.357 C 240.810 89.601,240.405 89.956,240.403 90.146 C 240.401 90.336,240.895 90.162,241.500 89.759 C 243.392 88.498,249.671 85.383,252.700 84.203 C 255.375 83.161,256.069 82.789,255.300 82.807 C 255.135 82.811,253.545 83.414,251.766 84.147 M303.200 82.937 C 303.200 83.012,304.435 83.558,305.945 84.150 C 308.663 85.217,314.780 88.349,316.900 89.760 C 317.505 90.163,318.000 90.400,318.000 90.288 C 318.000 89.664,310.470 85.539,306.296 83.877 C 303.590 82.799,303.200 82.681,303.200 82.937 M160.220 90.731 C 160.429 90.913,161.860 91.935,163.400 93.004 C 169.962 97.555,176.274 103.618,182.063 110.927 C 185.617 115.415,186.626 116.537,185.187 114.400 C 184.316 113.107,182.886 111.250,180.419 108.209 C 176.366 103.214,161.844 90.412,160.220 90.402 C 159.980 90.401,159.980 90.522,160.220 90.731 M238.629 91.009 C 238.205 91.329,237.938 91.671,238.035 91.769 C 238.132 91.866,238.659 91.602,239.206 91.182 C 239.753 90.761,240.020 90.420,239.800 90.422 C 239.580 90.424,239.053 90.688,238.629 91.009 M319.600 91.317 C 319.600 91.402,320.680 92.310,322.000 93.335 C 323.320 94.360,324.400 95.084,324.400 94.944 C 324.400 94.655,323.744 94.111,321.300 92.371 C 320.365 91.706,319.600 91.231,319.600 91.317 M233.400 94.903 C 230.769 96.873,221.734 105.559,219.570 108.200 C 218.541 109.456,214.962 114.167,214.251 115.200 C 213.201 116.728,214.962 114.685,217.969 110.888 C 223.288 104.171,227.931 99.603,235.215 93.919 C 237.701 91.978,236.273 92.753,233.400 94.903 M72.128 97.812 C 69.173 100.491,62.679 108.000,63.317 108.000 C 63.435 108.000,64.274 107.055,65.180 105.900 C 66.086 104.745,68.747 101.865,71.093 99.500 C 75.949 94.604,76.301 94.029,72.128 97.812 M327.000 97.456 C 328.320 98.752,330.456 100.943,331.747 102.325 C 333.038 103.708,334.157 104.777,334.233 104.700 C 334.486 104.448,328.538 98.208,326.549 96.639 C 324.683 95.166,324.702 95.201,327.000 97.456 M335.140 106.316 C 335.633 107.009,336.244 107.704,336.497 107.860 C 336.750 108.017,336.554 107.577,336.060 106.884 C 335.567 106.191,334.956 105.496,334.703 105.340 C 334.450 105.183,334.646 105.623,335.140 106.316 M337.437 109.400 C 337.797 109.950,338.157 110.400,338.237 110.400 C 338.317 110.400,338.178 109.950,337.927 109.400 C 337.677 108.850,337.316 108.400,337.127 108.400 C 336.937 108.400,337.076 108.850,337.437 109.400 M59.814 113.035 C 59.441 113.604,59.227 114.161,59.339 114.272 C 59.450 114.383,59.829 113.918,60.181 113.237 C 60.959 111.733,60.744 111.615,59.814 113.035 M339.560 112.600 C 340.234 113.905,340.788 114.628,340.785 114.200 C 340.783 113.980,340.414 113.350,339.964 112.800 C 339.421 112.136,339.285 112.069,339.560 112.600 M56.872 118.445 C 54.582 123.259,54.890 123.349,57.284 118.565 C 58.321 116.494,59.041 114.803,58.884 114.806 C 58.728 114.810,57.822 116.447,56.872 118.445 M341.456 115.988 C 341.842 116.641,342.211 117.123,342.275 117.059 C 342.488 116.845,341.406 114.806,341.077 114.803 C 340.900 114.801,341.070 115.334,341.456 115.988 M187.427 118.162 C 188.249 119.399,189.001 120.332,189.099 120.234 C 189.312 120.021,186.973 116.554,186.361 116.176 C 186.126 116.030,186.605 116.924,187.427 118.162 M212.998 116.802 C 212.598 117.244,212.366 117.699,212.482 117.815 C 212.597 117.930,212.990 117.569,213.355 117.012 C 214.152 115.796,213.993 115.702,212.998 116.802 M211.398 119.202 C 210.998 119.644,210.766 120.099,210.882 120.215 C 210.997 120.330,211.390 119.969,211.755 119.412 C 212.552 118.196,212.393 118.102,211.398 119.202 M343.573 120.100 C 344.406 122.221,345.583 124.562,345.591 124.112 C 345.601 123.543,343.662 119.200,343.398 119.200 C 343.300 119.200,343.379 119.605,343.573 120.100 M190.677 123.245 C 191.644 124.909,194.445 128.089,194.710 127.823 C 194.827 127.707,194.466 127.252,193.908 126.813 C 193.350 126.374,192.313 125.112,191.605 124.008 C 190.193 121.807,189.523 121.256,190.677 123.245 M209.014 123.035 C 208.641 123.604,208.427 124.161,208.539 124.272 C 208.650 124.383,209.029 123.918,209.381 123.237 C 210.159 121.733,209.944 121.615,209.014 123.035 M54.551 123.500 C 54.428 123.885,54.176 124.560,53.990 125.000 C 52.610 128.272,49.966 137.908,50.041 139.391 C 50.064 139.836,50.255 139.480,50.466 138.600 C 51.890 132.650,52.630 129.968,53.491 127.646 C 54.753 124.244,55.190 122.800,54.960 122.800 C 54.858 122.800,54.674 123.115,54.551 123.500 M206.483 126.301 C 204.643 128.257,205.108 128.338,207.007 126.393 C 207.863 125.517,208.391 124.823,208.181 124.851 C 207.972 124.879,207.208 125.531,206.483 126.301 M345.990 125.827 C 346.196 126.472,346.844 128.620,347.428 130.600 C 348.645 134.723,349.347 136.514,348.997 134.600 C 348.659 132.761,346.334 125.448,345.952 125.027 C 345.766 124.822,345.783 125.182,345.990 125.827 M197.865 129.254 C 198.269 129.413,199.230 129.544,200.000 129.544 C 200.770 129.544,201.731 129.413,202.135 129.254 C 202.544 129.093,201.594 128.965,200.000 128.965 C 198.406 128.965,197.456 129.093,197.865 129.254 M349.275 137.000 C 349.265 137.660,349.411 138.560,349.600 139.000 L 349.944 139.800 349.925 139.000 C 349.914 138.560,349.768 137.660,349.600 137.000 L 349.295 135.800 349.275 137.000 M49.415 142.615 C 49.261 143.854,49.224 144.957,49.334 145.067 C 49.444 145.177,49.661 144.254,49.815 143.015 C 49.970 141.777,50.007 140.673,49.897 140.563 C 49.787 140.453,49.570 141.377,49.415 142.615 M350.070 141.200 C 350.057 141.750,350.195 142.920,350.377 143.800 L 350.708 145.400 350.707 144.000 C 350.705 142.235,350.109 139.612,350.070 141.200 M48.662 149.700 C 48.351 153.690,48.385 158.617,48.744 161.600 C 48.893 162.845,49.020 160.025,49.035 155.100 C 49.065 145.428,49.032 144.947,48.662 149.700 M350.995 155.000 C 350.995 159.840,351.116 162.900,351.263 161.800 C 351.600 159.277,351.595 151.757,351.254 148.600 C 351.110 147.270,350.995 150.122,350.995 155.000 M49.295 165.800 C 49.295 166.460,49.432 167.540,49.600 168.200 L 49.905 169.400 49.905 168.200 C 49.905 167.540,49.768 166.460,49.600 165.800 L 49.295 164.600 49.295 165.800 M350.200 166.800 C 350.045 167.928,350.008 168.941,350.118 169.051 C 350.228 169.161,350.445 168.328,350.600 167.200 C 350.755 166.072,350.792 165.059,350.682 164.949 C 350.572 164.839,350.355 165.672,350.200 166.800 M50.180 171.044 C 50.329 171.949,50.713 173.479,51.032 174.444 C 51.627 176.243,51.564 175.530,50.801 171.831 C 50.301 169.406,49.806 168.780,50.180 171.044 M349.047 172.712 C 348.656 174.410,347.903 177.137,347.373 178.772 C 346.844 180.407,346.480 181.813,346.564 181.898 C 346.783 182.116,348.622 176.334,349.430 172.890 C 349.806 171.289,350.033 169.900,349.935 169.802 C 349.837 169.704,349.437 171.014,349.047 172.712 M51.600 176.527 C 51.600 177.105,54.490 185.425,54.804 185.751 C 54.990 185.944,54.419 183.964,53.535 181.351 C 52.054 176.975,51.600 175.842,51.600 176.527 M345.526 184.114 C 345.176 185.041,344.497 186.790,344.016 188.000 C 343.536 189.210,343.308 190.020,343.510 189.800 C 344.019 189.246,346.542 182.808,346.332 182.599 C 346.239 182.505,345.876 183.187,345.526 184.114 M55.209 186.688 C 55.199 187.257,57.138 191.600,57.402 191.600 C 57.610 191.600,57.198 190.505,56.046 188.000 C 55.590 187.010,55.214 186.420,55.209 186.688 M340.661 195.100 L 339.974 196.600 340.778 195.600 C 341.471 194.738,341.867 193.600,341.474 193.600 C 341.405 193.600,341.039 194.275,340.661 195.100 M61.618 200.200 C 61.618 200.420,61.970 201.050,62.400 201.600 C 62.830 202.150,63.182 202.420,63.182 202.200 C 63.182 201.980,62.830 201.350,62.400 200.800 C 61.970 200.250,61.618 199.980,61.618 200.200 M337.386 201.300 L 336.752 202.600 337.567 201.600 C 338.352 200.637,338.608 200.000,338.210 200.000 C 338.106 200.000,337.735 200.585,337.386 201.300 M63.759 203.900 C 64.489 205.284,65.570 206.699,65.587 206.291 C 65.602 205.941,63.577 202.800,63.337 202.800 C 63.250 202.800,63.440 203.295,63.759 203.900 M335.908 203.700 C 335.587 204.195,335.107 205.050,334.840 205.600 C 334.160 207.003,335.394 205.506,336.241 203.900 C 336.939 202.574,336.723 202.444,335.908 203.700 M65.813 207.200 C 66.103 207.725,69.272 212.417,73.000 217.840 C 73.660 218.800,74.342 219.589,74.516 219.593 C 74.689 219.597,73.868 218.295,72.691 216.700 C 71.514 215.105,69.593 212.360,68.421 210.600 C 66.421 207.596,65.035 205.789,65.813 207.200 M330.898 211.600 C 329.103 214.240,327.761 216.397,327.917 216.394 C 328.073 216.390,329.280 214.746,330.600 212.740 C 334.178 207.302,334.493 206.800,334.321 206.800 C 334.234 206.800,332.694 208.960,330.898 211.600 M326.384 218.023 C 325.905 218.696,325.579 219.313,325.661 219.394 C 325.743 219.476,326.214 218.926,326.708 218.171 C 327.823 216.471,327.571 216.356,326.384 218.023 M75.668 221.352 C 76.181 222.143,76.747 222.792,76.927 222.795 C 77.299 222.801,75.782 220.559,75.149 220.169 C 74.922 220.028,75.155 220.560,75.668 221.352 M323.827 221.400 C 323.240 222.170,322.903 222.798,323.080 222.795 C 323.256 222.792,323.807 222.162,324.304 221.395 C 325.468 219.597,325.200 219.600,323.827 221.400 M77.956 224.200 C 79.349 226.210,79.984 226.950,80.163 226.770 C 80.257 226.676,79.612 225.789,78.730 224.800 C 77.847 223.810,77.499 223.540,77.956 224.200 M321.021 225.000 C 320.210 225.990,319.674 226.800,319.829 226.800 C 320.111 226.800,320.479 226.383,322.033 224.300 C 323.349 222.537,322.634 223.032,321.021 225.000 M80.856 227.800 C 81.767 229.060,88.860 237.255,90.300 238.712 C 92.433 240.870,91.771 239.655,89.496 237.236 C 88.339 236.006,86.404 233.841,85.196 232.423 C 82.676 229.466,79.999 226.615,80.856 227.800 M317.339 229.500 C 316.281 230.765,314.017 233.354,312.308 235.253 C 310.598 237.152,309.200 238.825,309.200 238.971 C 309.200 239.365,310.573 237.896,314.783 233.000 C 319.689 227.293,319.765 227.200,319.493 227.200 C 319.366 227.200,318.396 228.235,317.339 229.500 M299.009 249.307 C 290.677 257.735,290.329 258.327,298.129 250.804 C 301.454 247.597,308.255 240.392,307.943 240.407 C 307.864 240.411,303.844 244.416,299.009 249.307 M96.188 244.976 C 98.095 247.053,101.757 250.685,104.327 253.047 C 107.932 256.361,107.173 255.498,101.004 249.271 C 96.606 244.832,92.943 241.200,92.865 241.200 C 92.786 241.200,94.282 242.899,96.188 244.976 M111.506 259.900 C 113.759 262.050,121.547 268.911,123.200 270.201 L 124.600 271.295 123.179 269.947 C 122.397 269.206,120.237 267.251,118.379 265.602 C 116.520 263.953,113.994 261.658,112.764 260.502 C 111.534 259.346,110.394 258.400,110.231 258.400 C 110.068 258.400,110.642 259.075,111.506 259.900 M284.540 262.923 C 282.307 264.945,280.462 266.757,280.440 266.949 C 280.418 267.141,281.973 265.881,283.895 264.149 C 288.373 260.114,289.310 259.195,288.918 259.223 C 288.743 259.235,286.773 260.900,284.540 262.923 M277.589 269.256 C 276.385 270.362,275.861 270.937,276.425 270.533 C 278.229 269.243,280.106 267.572,279.939 267.406 C 279.850 267.317,278.793 268.149,277.589 269.256 M124.822 271.463 C 124.835 271.648,125.856 272.599,127.093 273.576 C 128.330 274.553,129.219 275.154,129.069 274.912 C 128.634 274.207,124.798 271.092,124.822 271.463 M269.400 276.066 C 264.299 280.300,261.329 282.879,262.369 282.170 C 263.124 281.655,269.314 276.723,269.600 276.409 C 269.771 276.221,273.884 272.865,274.367 272.519 C 274.458 272.454,274.458 272.328,274.367 272.240 C 274.275 272.152,272.040 273.874,269.400 276.066 M132.452 278.011 C 136.752 281.527,141.600 285.263,141.600 285.060 C 141.600 284.811,130.075 275.600,129.762 275.600 C 129.620 275.600,130.830 276.685,132.452 278.011 M259.585 284.032 L 258.200 285.263 259.488 284.413 C 260.630 283.659,261.493 282.800,261.108 282.800 C 261.032 282.800,260.347 283.354,259.585 284.032 M142.140 285.503 C 142.296 285.756,142.991 286.367,143.684 286.860 C 144.377 287.354,144.817 287.550,144.660 287.297 C 144.504 287.044,143.809 286.433,143.116 285.940 C 142.423 285.446,141.983 285.250,142.140 285.503 M254.914 287.568 C 251.645 290.110,250.302 291.401,252.400 289.984 C 253.170 289.464,253.890 288.935,254.000 288.809 C 254.153 288.633,256.582 286.744,257.967 285.723 C 258.058 285.655,258.058 285.538,257.967 285.462 C 257.875 285.386,256.501 286.334,254.914 287.568 M147.344 289.509 C 147.660 290.021,150.000 291.753,150.000 291.475 C 150.000 291.376,149.339 290.791,148.532 290.175 C 147.724 289.559,147.189 289.259,147.344 289.509 M245.997 294.291 C 241.315 297.785,239.697 298.946,233.494 303.258 C 231.566 304.599,229.877 305.876,229.741 306.095 C 229.418 306.619,238.726 300.195,243.200 296.808 C 245.844 294.806,249.863 291.895,250.397 291.595 C 250.725 291.411,250.903 291.170,250.793 291.060 C 250.683 290.950,248.525 292.404,245.997 294.291 M150.400 291.941 C 150.400 292.147,150.625 292.403,150.900 292.510 C 151.175 292.618,153.560 294.311,156.200 296.272 C 161.801 300.432,164.800 302.516,164.800 302.248 C 164.800 302.143,162.955 300.731,160.700 299.112 C 158.445 297.492,155.205 295.132,153.500 293.868 C 151.795 292.603,150.400 291.736,150.400 291.941 M166.200 303.366 C 169.564 306.266,190.641 319.893,191.080 319.453 C 191.194 319.340,190.661 318.986,189.897 318.666 C 188.664 318.151,179.879 312.422,168.800 304.909 C 166.710 303.491,165.540 302.797,166.200 303.366 M225.600 308.800 C 225.050 309.230,224.797 309.586,225.038 309.591 C 225.279 309.596,225.802 309.240,226.200 308.800 C 227.112 307.792,226.888 307.792,225.600 308.800 M223.194 310.418 C 222.647 310.839,222.380 311.180,222.600 311.178 C 223.129 311.173,224.591 310.058,224.365 309.831 C 224.268 309.734,223.741 309.998,223.194 310.418 M217.000 314.476 C 214.360 316.216,211.390 318.072,210.400 318.601 C 209.410 319.130,208.744 319.571,208.920 319.581 C 209.855 319.636,222.396 311.826,221.967 311.457 C 221.875 311.378,219.640 312.736,217.000 314.476 M192.000 320.000 C 192.330 320.213,192.870 320.388,193.200 320.388 C 193.733 320.388,193.733 320.345,193.200 320.000 C 192.870 319.787,192.330 319.612,192.000 319.612 C 191.467 319.612,191.467 319.655,192.000 320.000 M206.800 320.000 C 206.267 320.345,206.267 320.388,206.800 320.388 C 207.130 320.388,207.670 320.213,208.000 320.000 C 208.533 319.655,208.533 319.612,208.000 319.612 C 207.670 319.612,207.130 319.787,206.800 320.000 M195.000 320.780 C 195.761 321.126,198.717 321.364,198.367 321.051 C 198.275 320.969,197.300 320.793,196.200 320.659 C 194.854 320.495,194.461 320.535,195.000 320.780 M202.800 320.800 L 201.400 321.095 202.800 321.119 C 203.570 321.133,204.560 320.989,205.000 320.800 L 205.800 320.456 205.000 320.481 C 204.560 320.494,203.570 320.638,202.800 320.800 " stroke="none" fill="#80262c" fill-rule="evenodd"></path><path id="path3" d="M118.515 79.096 C 119.788 79.176,121.768 79.175,122.915 79.094 C 124.062 79.014,123.020 78.949,120.600 78.950 C 118.180 78.951,117.242 79.016,118.515 79.096 M277.513 79.095 C 278.676 79.176,280.476 79.176,281.513 79.093 C 282.551 79.011,281.600 78.945,279.400 78.946 C 277.200 78.947,276.351 79.014,277.513 79.095 M285.300 79.476 C 285.685 79.576,286.315 79.576,286.700 79.476 C 287.085 79.375,286.770 79.293,286.000 79.293 C 285.230 79.293,284.915 79.375,285.300 79.476 M317.200 90.124 C 317.200 90.217,317.965 90.798,318.900 91.415 C 319.835 92.032,320.389 92.280,320.131 91.968 C 319.634 91.367,317.200 89.836,317.200 90.124 M74.175 96.500 L 73.000 97.800 74.300 96.625 C 75.512 95.530,75.784 95.200,75.475 95.200 C 75.406 95.200,74.821 95.785,74.175 96.500 M324.400 95.325 C 324.400 95.394,324.985 95.979,325.700 96.625 L 327.000 97.800 325.825 96.500 C 324.730 95.288,324.400 95.016,324.400 95.325 M173.000 101.200 C 174.083 102.300,175.060 103.200,175.170 103.200 C 175.280 103.200,174.483 102.300,173.400 101.200 C 172.317 100.100,171.340 99.200,171.230 99.200 C 171.120 99.200,171.917 100.100,173.000 101.200 M225.191 102.700 L 221.800 106.200 225.300 102.809 C 227.225 100.944,228.800 99.369,228.800 99.309 C 228.800 99.018,228.341 99.449,225.191 102.700 M175.600 103.725 C 175.600 103.794,176.185 104.379,176.900 105.025 L 178.200 106.200 177.025 104.900 C 175.930 103.688,175.600 103.416,175.600 103.725 M63.944 107.500 C 62.793 108.889,62.306 109.600,62.504 109.600 C 62.614 109.600,63.186 108.970,63.773 108.200 C 64.863 106.771,64.995 106.232,63.944 107.500 M61.753 110.500 C 60.376 112.836,60.286 113.035,60.987 112.200 C 61.800 111.232,62.500 110.000,62.238 110.000 C 62.133 110.000,61.915 110.225,61.753 110.500 M206.575 126.900 L 205.400 128.200 206.700 127.025 C 207.415 126.379,208.000 125.794,208.000 125.725 C 208.000 125.416,207.670 125.688,206.575 126.900 M350.944 155.200 C 350.944 157.290,351.012 158.145,351.094 157.100 C 351.176 156.055,351.176 154.345,351.094 153.300 C 351.012 152.255,350.944 153.110,350.944 155.200 M48.940 155.200 C 48.940 157.070,49.009 157.835,49.093 156.900 C 49.177 155.965,49.177 154.435,49.093 153.500 C 49.009 152.565,48.940 153.330,48.940 155.200 M77.191 222.788 C 77.657 223.441,78.242 224.102,78.491 224.256 C 78.741 224.411,78.441 223.876,77.825 223.068 C 76.488 221.315,75.984 221.092,77.191 222.788 M314.175 232.900 L 313.000 234.200 314.300 233.025 C 315.015 232.379,315.600 231.794,315.600 231.725 C 315.600 231.416,315.270 231.688,314.175 232.900 M87.600 235.325 C 87.600 235.394,88.185 235.979,88.900 236.625 L 90.200 237.800 89.025 236.500 C 87.930 235.288,87.600 235.016,87.600 235.325 M306.786 241.100 L 304.600 243.400 306.900 241.214 C 309.037 239.182,309.383 238.800,309.086 238.800 C 309.024 238.800,307.989 239.835,306.786 241.100 M94.000 242.200 C 95.417 243.630,96.667 244.800,96.777 244.800 C 96.887 244.800,95.817 243.630,94.400 242.200 C 92.983 240.770,91.733 239.600,91.623 239.600 C 91.513 239.600,92.583 240.770,94.000 242.200 M298.575 249.700 L 297.400 251.000 298.700 249.825 C 299.415 249.179,300.000 248.594,300.000 248.525 C 300.000 248.216,299.670 248.488,298.575 249.700 M104.400 252.510 C 104.400 252.571,105.795 253.966,107.500 255.610 L 110.600 258.600 107.610 255.500 C 104.833 252.621,104.400 252.217,104.400 252.510 M291.188 256.700 L 288.600 259.400 291.300 256.812 C 292.785 255.388,294.000 254.173,294.000 254.112 C 294.000 253.817,293.593 254.192,291.188 256.700 M112.400 260.125 C 112.400 260.194,112.985 260.779,113.700 261.425 L 115.000 262.600 113.825 261.300 C 112.730 260.088,112.400 259.816,112.400 260.125 M285.375 262.100 L 284.200 263.400 285.500 262.225 C 286.215 261.579,286.800 260.994,286.800 260.925 C 286.800 260.616,286.470 260.888,285.375 262.100 M116.000 263.325 C 116.000 263.394,116.585 263.979,117.300 264.625 L 118.600 265.800 117.425 264.500 C 116.330 263.288,116.000 263.016,116.000 263.325 M281.775 265.300 L 280.600 266.600 281.900 265.425 C 282.615 264.779,283.200 264.194,283.200 264.125 C 283.200 263.816,282.870 264.088,281.775 265.300 M122.400 268.925 C 122.400 268.994,122.985 269.579,123.700 270.225 L 125.000 271.400 123.825 270.100 C 122.730 268.888,122.400 268.616,122.400 268.925 M275.294 270.812 C 274.575 271.465,274.137 272.000,274.319 272.000 C 274.501 272.000,275.168 271.460,275.800 270.800 C 277.270 269.265,276.986 269.272,275.294 270.812 M127.600 273.325 C 127.600 273.394,128.185 273.979,128.900 274.625 L 130.200 275.800 129.025 274.500 C 127.930 273.288,127.600 273.016,127.600 273.325 M140.544 283.909 C 140.860 284.421,143.200 286.153,143.200 285.875 C 143.200 285.776,142.539 285.191,141.732 284.575 C 140.924 283.959,140.389 283.659,140.544 283.909 M228.207 306.622 C 227.111 307.380,226.359 308.000,226.535 308.000 C 226.918 308.000,230.400 305.640,230.400 305.381 C 230.400 305.111,230.359 305.134,228.207 306.622 M199.100 321.082 C 199.595 321.178,200.405 321.178,200.900 321.082 C 201.395 320.987,200.990 320.909,200.000 320.909 C 199.010 320.909,198.605 320.987,199.100 321.082 " stroke="none" fill="#b03a3f" fill-rule="evenodd"></path><path id="path4" d="M113.000 79.600 L 111.000 79.874 112.800 79.902 C 113.790 79.917,115.500 79.790,116.600 79.618 L 118.600 79.307 116.800 79.316 C 115.810 79.321,114.100 79.449,113.000 79.600 M124.200 79.618 C 125.300 79.790,127.100 79.919,128.200 79.906 L 130.200 79.882 127.800 79.585 C 124.325 79.153,121.392 79.181,124.200 79.618 M271.800 79.616 C 270.700 79.775,272.230 79.814,275.200 79.701 C 278.170 79.588,280.675 79.429,280.767 79.348 C 281.051 79.096,273.912 79.309,271.800 79.616 M283.400 79.605 C 284.982 79.950,289.089 80.139,288.767 79.851 C 288.675 79.770,287.070 79.602,285.200 79.479 C 282.772 79.320,282.257 79.356,283.400 79.605 M107.600 80.400 C 106.216 80.691,106.214 80.695,107.400 80.741 C 108.060 80.767,108.870 80.613,109.200 80.400 C 109.866 79.970,109.645 79.970,107.600 80.400 M131.800 80.390 C 132.564 80.728,135.114 80.957,134.767 80.656 C 134.675 80.576,133.790 80.404,132.800 80.273 C 131.598 80.114,131.266 80.153,131.800 80.390 M266.400 80.400 C 265.033 80.688,265.028 80.695,266.200 80.719 C 266.860 80.733,267.760 80.589,268.200 80.400 C 269.162 79.987,268.364 79.987,266.400 80.400 M290.600 80.390 C 291.364 80.728,293.914 80.957,293.567 80.656 C 293.475 80.576,292.590 80.404,291.600 80.273 C 290.398 80.114,290.066 80.153,290.600 80.390 M103.800 81.200 C 102.693 81.482,102.677 81.509,103.600 81.547 C 104.150 81.569,104.870 81.413,105.200 81.200 C 105.881 80.760,105.529 80.760,103.800 81.200 M136.000 81.194 C 136.330 81.411,137.035 81.591,137.567 81.594 C 138.851 81.602,138.525 81.375,136.800 81.058 C 135.815 80.877,135.578 80.918,136.000 81.194 M262.600 81.200 C 261.493 81.482,261.477 81.509,262.400 81.547 C 262.950 81.569,263.670 81.413,264.000 81.200 C 264.681 80.760,264.329 80.760,262.600 81.200 M294.800 81.194 C 295.130 81.411,295.835 81.591,296.367 81.594 C 297.651 81.602,297.325 81.375,295.600 81.058 C 294.615 80.877,294.378 80.918,294.800 81.194 M100.800 82.000 C 99.976 82.264,99.941 82.326,100.600 82.354 C 101.040 82.373,101.670 82.213,102.000 82.000 C 102.701 81.547,102.214 81.547,100.800 82.000 M139.200 81.982 C 139.530 82.205,140.145 82.391,140.567 82.394 C 141.590 82.402,141.271 82.173,139.800 81.844 C 138.924 81.648,138.762 81.685,139.200 81.982 M259.600 82.000 C 258.776 82.264,258.741 82.326,259.400 82.354 C 259.840 82.373,260.470 82.213,260.800 82.000 C 261.501 81.547,261.014 81.547,259.600 82.000 M298.000 81.982 C 298.330 82.205,298.945 82.391,299.367 82.394 C 300.390 82.402,300.071 82.173,298.600 81.844 C 297.724 81.648,297.562 81.685,298.000 81.982 M302.800 83.317 C 303.107 83.649,307.200 85.214,307.200 85.000 C 307.200 84.794,305.113 83.875,303.565 83.398 C 303.034 83.234,302.690 83.198,302.800 83.317 M94.100 84.234 C 93.385 84.546,92.800 84.890,92.800 84.998 C 92.800 85.176,95.976 84.051,96.367 83.735 C 96.795 83.388,95.262 83.726,94.100 84.234 M145.400 83.984 C 148.527 85.285,150.539 86.002,150.200 85.696 C 149.675 85.222,145.621 83.593,145.047 83.625 C 144.801 83.639,144.960 83.800,145.400 83.984 M252.123 84.545 C 249.298 85.736,248.854 86.284,251.600 85.192 C 255.251 83.739,255.437 83.650,254.800 83.660 C 254.470 83.665,253.265 84.064,252.123 84.545 M89.600 86.400 C 88.390 87.039,87.580 87.562,87.800 87.562 C 88.020 87.562,89.190 87.039,90.400 86.400 C 91.610 85.761,92.420 85.238,92.200 85.238 C 91.980 85.238,90.810 85.761,89.600 86.400 M312.800 87.779 C 312.800 87.889,313.340 88.259,314.000 88.600 C 314.660 88.941,315.200 89.131,315.200 89.021 C 315.200 88.911,314.660 88.541,314.000 88.200 C 313.340 87.859,312.800 87.669,312.800 87.779 M238.576 91.787 C 238.149 92.110,237.980 92.375,238.200 92.375 C 238.420 92.375,238.949 92.110,239.376 91.787 C 239.804 91.464,239.973 91.200,239.753 91.200 C 239.533 91.200,239.004 91.464,238.576 91.787 M76.400 94.870 C 75.410 95.753,75.140 96.101,75.800 95.644 C 77.810 94.251,78.550 93.616,78.370 93.437 C 78.276 93.343,77.389 93.988,76.400 94.870 M167.615 96.653 C 167.623 96.844,168.443 97.630,169.436 98.400 C 170.429 99.170,172.872 101.476,174.864 103.523 C 176.856 105.571,178.554 107.179,178.637 107.096 C 178.800 106.933,172.077 100.241,169.300 97.800 C 168.365 96.979,167.607 96.463,167.615 96.653 M226.861 101.432 C 223.967 104.206,221.600 106.616,221.600 106.788 C 221.600 106.960,223.445 105.264,225.700 103.020 C 227.955 100.776,230.408 98.451,231.150 97.853 C 231.893 97.256,232.415 96.682,232.311 96.578 C 232.207 96.474,229.754 98.658,226.861 101.432 M71.183 99.498 C 69.480 101.311,69.471 101.334,70.976 99.998 C 73.601 97.670,73.669 97.600,73.312 97.600 C 73.122 97.600,72.164 98.454,71.183 99.498 M326.443 97.700 C 326.539 97.755,327.694 98.790,329.009 100.000 L 331.400 102.200 329.214 99.900 C 328.011 98.635,326.856 97.600,326.647 97.600 C 326.438 97.600,326.346 97.645,326.443 97.700 M66.500 104.593 C 65.565 105.746,64.800 106.812,64.800 106.961 C 64.800 107.109,65.625 106.219,66.632 104.981 C 67.640 103.744,68.405 102.679,68.332 102.614 C 68.260 102.549,67.435 103.440,66.500 104.593 M331.617 102.699 C 331.627 102.864,332.482 103.904,333.517 105.009 C 335.620 107.254,335.363 106.715,333.083 104.099 C 332.267 103.163,331.608 102.533,331.617 102.699 M337.455 110.400 C 338.480 111.940,339.392 113.200,339.482 113.200 C 339.695 113.200,339.398 112.701,337.515 109.900 C 336.666 108.635,335.885 107.600,335.782 107.600 C 335.678 107.600,336.431 108.860,337.455 110.400 M181.387 110.783 C 182.395 112.093,183.418 113.287,183.659 113.437 C 183.901 113.586,183.160 112.514,182.013 111.054 C 180.866 109.594,179.843 108.400,179.740 108.400 C 179.637 108.400,180.378 109.472,181.387 110.783 M217.091 112.245 C 216.040 113.650,215.265 114.800,215.367 114.800 C 215.646 114.800,219.307 109.972,219.142 109.821 C 219.064 109.749,218.141 110.840,217.091 112.245 M186.842 118.300 C 189.157 121.772,190.227 123.041,188.780 120.600 C 187.595 118.601,185.184 115.200,184.950 115.200 C 184.854 115.200,185.706 116.595,186.842 118.300 M212.883 118.100 C 210.674 121.399,210.080 122.401,210.687 121.800 C 211.324 121.169,215.247 115.200,215.024 115.200 C 214.914 115.200,213.951 116.505,212.883 118.100 M206.969 126.664 C 206.072 127.619,205.451 128.400,205.588 128.400 C 205.954 128.400,208.979 125.240,208.774 125.071 C 208.678 124.992,207.866 125.709,206.969 126.664 M193.087 127.223 C 193.795 127.958,194.462 128.472,194.569 128.365 C 194.675 128.258,194.096 127.657,193.281 127.029 L 191.800 125.887 193.087 127.223 M197.062 129.700 C 197.164 129.865,198.486 130.000,200.000 130.000 C 201.514 130.000,202.836 129.865,202.938 129.700 C 203.040 129.535,201.718 129.400,200.000 129.400 C 198.282 129.400,196.960 129.535,197.062 129.700 M347.044 130.600 C 347.373 132.071,347.602 132.390,347.594 131.367 C 347.591 130.945,347.405 130.330,347.182 130.000 C 346.885 129.562,346.848 129.724,347.044 130.600 M51.800 133.600 C 51.648 134.291,51.607 134.941,51.709 135.042 C 51.811 135.144,52.009 134.653,52.150 133.950 C 52.483 132.283,52.160 131.960,51.800 133.600 M51.056 136.484 C 50.921 136.988,50.828 137.850,50.849 138.400 C 50.872 138.989,51.031 138.671,51.236 137.625 C 51.603 135.752,51.473 134.927,51.056 136.484 M349.474 141.400 C 349.595 142.720,349.840 144.430,350.018 145.200 C 350.226 146.104,350.258 145.608,350.107 143.800 C 349.978 142.260,349.734 140.550,349.563 140.000 C 349.386 139.426,349.348 140.023,349.474 141.400 M50.109 142.800 C 50.109 143.790,50.187 144.195,50.282 143.700 C 50.378 143.205,50.378 142.395,50.282 141.900 C 50.187 141.405,50.109 141.810,50.109 142.800 M49.368 155.000 C 49.368 159.400,49.426 161.255,49.498 159.121 C 49.570 156.988,49.570 153.388,49.499 151.121 C 49.427 148.855,49.368 150.600,49.368 155.000 M350.569 155.200 C 350.569 159.710,350.627 161.555,350.698 159.300 C 350.770 157.045,350.770 153.355,350.698 151.100 C 350.627 148.845,350.569 150.690,350.569 155.200 M349.785 165.785 C 349.630 167.023,349.590 168.123,349.695 168.229 C 349.801 168.334,350.007 167.401,350.154 166.154 C 350.300 164.907,350.341 163.807,350.243 163.710 C 350.146 163.612,349.939 164.546,349.785 165.785 M50.101 167.000 C 50.105 167.880,50.187 168.193,50.283 167.695 C 50.379 167.198,50.375 166.478,50.275 166.095 C 50.175 165.713,50.096 166.120,50.101 167.000 M50.828 171.233 C 50.844 171.765,51.019 172.560,51.219 173.000 C 51.471 173.558,51.507 173.315,51.338 172.200 C 51.055 170.343,50.787 169.836,50.828 171.233 M51.606 174.633 C 51.609 175.055,51.795 175.670,52.018 176.000 C 52.315 176.438,52.352 176.276,52.156 175.400 C 51.827 173.929,51.598 173.610,51.606 174.633 M348.046 174.467 C 348.021 174.834,347.896 175.464,347.770 175.867 C 347.552 176.562,347.563 176.563,347.997 175.887 C 348.248 175.496,348.373 174.866,348.273 174.487 C 348.111 173.868,348.088 173.866,348.046 174.467 M62.586 200.700 C 62.935 201.415,63.306 202.000,63.410 202.000 C 63.808 202.000,63.552 201.363,62.767 200.400 L 61.952 199.400 62.586 200.700 M63.960 203.000 C 64.634 204.305,65.188 205.028,65.185 204.600 C 65.183 204.380,64.814 203.750,64.364 203.200 C 63.821 202.536,63.685 202.469,63.960 203.000 M335.414 203.435 C 335.041 204.004,334.805 204.538,334.889 204.622 C 334.973 204.707,335.358 204.241,335.744 203.588 C 336.606 202.128,336.348 202.009,335.414 203.435 M66.622 207.500 C 68.759 210.795,69.324 211.600,69.499 211.600 C 69.605 211.600,69.371 211.105,68.978 210.500 C 66.841 207.205,66.276 206.400,66.101 206.400 C 65.995 206.400,66.229 206.895,66.622 207.500 M332.721 207.900 C 330.579 211.160,330.315 211.600,330.501 211.600 C 330.676 211.600,331.241 210.795,333.378 207.500 C 333.771 206.895,334.005 206.400,333.899 206.400 C 333.793 206.400,333.263 207.075,332.721 207.900 M70.468 213.352 C 70.981 214.143,71.547 214.792,71.727 214.795 C 72.099 214.801,70.582 212.559,69.949 212.169 C 69.722 212.028,69.955 212.560,70.468 213.352 M327.944 215.100 C 326.793 216.489,326.306 217.200,326.504 217.200 C 326.614 217.200,327.186 216.570,327.773 215.800 C 328.863 214.371,328.995 213.832,327.944 215.100 M323.144 221.500 C 321.875 223.032,321.419 223.742,321.881 223.465 C 322.393 223.158,324.169 220.800,323.889 220.800 C 323.798 220.800,323.463 221.115,323.144 221.500 M78.809 224.263 C 78.819 224.663,82.400 229.000,82.400 228.613 C 82.400 228.466,81.590 227.352,80.600 226.136 C 79.610 224.921,78.804 224.078,78.809 224.263 M319.687 225.816 C 317.990 228.123,318.283 228.114,320.179 225.800 C 320.990 224.810,321.507 224.007,321.327 224.016 C 321.147 224.024,320.409 224.834,319.687 225.816 M315.482 230.866 C 314.207 232.370,313.247 233.600,313.348 233.600 C 313.641 233.600,318.131 228.395,317.957 228.256 C 317.871 228.188,316.757 229.362,315.482 230.866 M83.922 230.700 C 84.577 231.525,85.529 232.560,86.040 233.000 C 86.550 233.440,86.098 232.765,85.035 231.500 C 82.889 228.946,82.056 228.347,83.922 230.700 M88.801 236.196 C 89.570 237.073,90.245 237.868,90.300 237.962 C 90.355 238.056,90.487 238.047,90.593 237.941 C 90.699 237.835,90.024 237.040,89.093 236.174 L 87.401 234.600 88.801 236.196 M311.000 236.000 C 310.368 236.660,310.019 237.190,310.225 237.178 C 310.578 237.157,312.639 234.800,312.305 234.800 C 312.220 234.800,311.632 235.340,311.000 236.000 M308.575 238.900 L 307.400 240.200 308.700 239.025 C 309.415 238.379,310.000 237.794,310.000 237.725 C 310.000 237.416,309.670 237.688,308.575 238.900 M90.800 238.525 C 90.800 238.594,91.385 239.179,92.100 239.825 L 93.400 241.000 92.225 239.700 C 91.130 238.488,90.800 238.216,90.800 238.525 M299.193 248.479 C 297.099 250.636,295.483 252.400,295.601 252.400 C 295.944 252.400,303.378 244.840,303.179 244.692 C 303.081 244.619,301.287 246.323,299.193 248.479 M109.200 256.925 C 109.200 256.994,109.785 257.579,110.500 258.225 L 111.800 259.400 110.625 258.100 C 109.530 256.888,109.200 256.616,109.200 256.925 M288.575 258.900 L 287.400 260.200 288.700 259.025 C 289.912 257.930,290.184 257.600,289.875 257.600 C 289.806 257.600,289.221 258.185,288.575 258.900 M112.041 259.443 C 112.063 259.640,112.963 260.590,114.041 261.557 C 115.118 262.523,115.982 263.153,115.959 262.957 C 115.937 262.760,115.037 261.810,113.959 260.843 C 112.882 259.877,112.018 259.247,112.041 259.443 M285.374 261.707 L 283.800 263.399 285.396 261.999 C 286.273 261.230,287.068 260.555,287.162 260.500 C 287.256 260.445,287.247 260.313,287.141 260.207 C 287.035 260.101,286.240 260.776,285.374 261.707 M119.372 266.099 C 120.927 267.584,122.336 268.799,122.501 268.799 C 122.778 268.800,121.754 267.855,117.972 264.621 C 117.186 263.950,117.816 264.615,119.372 266.099 M279.489 266.817 C 277.778 268.348,276.518 269.596,276.689 269.592 C 277.027 269.583,283.128 264.035,282.800 264.034 C 282.690 264.034,281.200 265.286,279.489 266.817 M272.654 272.655 C 272.023 273.197,271.573 273.706,271.654 273.786 C 271.734 273.866,272.316 273.488,272.946 272.945 C 273.577 272.403,274.027 271.894,273.946 271.814 C 273.866 271.734,273.284 272.112,272.654 272.655 M267.854 276.655 C 267.223 277.197,266.773 277.706,266.854 277.786 C 266.934 277.866,267.516 277.488,268.146 276.945 C 268.777 276.403,269.227 275.894,269.146 275.814 C 269.066 275.734,268.484 276.112,267.854 276.655 M263.400 280.244 C 260.677 282.416,258.622 284.290,260.000 283.344 C 261.207 282.516,266.400 278.305,266.400 278.155 C 266.400 277.870,266.212 278.000,263.400 280.244 M256.846 285.421 C 255.881 286.179,255.217 286.800,255.370 286.800 C 255.523 286.800,256.473 286.170,257.482 285.400 C 258.490 284.630,259.154 284.009,258.958 284.021 C 258.761 284.032,257.811 284.662,256.846 285.421 M145.800 287.748 C 146.680 288.540,147.549 289.191,147.731 289.194 C 147.913 289.197,147.553 288.791,146.931 288.291 C 144.840 286.609,144.186 286.295,145.800 287.748 M245.600 294.049 C 244.206 295.271,244.205 295.272,245.488 294.419 C 246.196 293.948,246.882 293.391,247.012 293.181 C 247.397 292.557,247.077 292.754,245.600 294.049 M154.000 293.900 C 154.000 294.069,154.360 294.432,154.800 294.707 C 155.240 294.982,155.600 295.069,155.600 294.900 C 155.600 294.731,155.240 294.368,154.800 294.093 C 154.360 293.818,154.000 293.731,154.000 293.900 M242.400 296.449 C 241.006 297.671,241.005 297.672,242.288 296.819 C 242.996 296.348,243.682 295.791,243.812 295.581 C 244.197 294.957,243.877 295.154,242.400 296.449 M157.200 296.134 C 157.200 296.245,158.505 297.272,160.100 298.416 C 161.695 299.561,162.640 300.145,162.200 299.714 C 161.181 298.716,157.200 295.866,157.200 296.134 M236.036 300.827 C 234.187 302.132,232.807 303.200,232.971 303.200 C 233.351 303.200,239.154 299.197,239.436 298.741 C 239.763 298.212,239.618 298.301,236.036 300.827 M164.800 301.687 C 165.939 302.786,169.600 305.267,169.592 304.934 C 169.587 304.750,168.372 303.814,166.892 302.854 C 165.411 301.894,164.470 301.368,164.800 301.687 M219.892 311.883 C 219.063 312.452,218.457 312.991,218.546 313.079 C 218.680 313.213,221.390 311.544,221.956 310.977 C 222.522 310.412,221.174 311.003,219.892 311.883 M184.400 314.929 C 184.400 315.027,185.525 315.837,186.900 316.729 C 189.535 318.440,191.830 319.496,191.399 318.799 C 191.264 318.579,190.921 318.400,190.638 318.400 C 190.355 318.400,189.061 317.716,187.762 316.879 C 184.573 314.826,184.400 314.726,184.400 314.929 M210.810 317.658 C 208.210 319.069,207.784 319.414,209.404 318.798 C 210.698 318.306,213.200 316.836,213.200 316.567 C 213.200 316.350,213.332 316.289,210.810 317.658 M195.800 320.400 C 196.460 320.568,197.540 320.705,198.200 320.705 L 199.400 320.705 198.200 320.400 C 197.540 320.232,196.460 320.095,195.800 320.095 L 194.600 320.095 195.800 320.400 M201.800 320.400 L 200.600 320.705 201.800 320.705 C 202.460 320.705,203.540 320.568,204.200 320.400 L 205.400 320.095 204.200 320.095 C 203.540 320.095,202.460 320.232,201.800 320.400 " stroke="none" fill="#cc444c" fill-rule="evenodd"></path></g></svg>