<svg width="101" height="101" viewBox="0 0 101 101" fill="none" xmlns="http://www.w3.org/2000/svg">
<g clip-path="url(#clip0_7_10)">
<path d="M34.4155 72.8628L35.7059 73.6962C36.8393 74.4295 38.5821 74.5486 49.9155 74.6771C70.144 74.9057 70.2964 74.7676 70.6059 44.7676C70.6059 40.939 70.7345 40.9581 50.6059 40.9581C29.2107 40.9581 30.6059 40.639 30.6059 45.5152C30.6059 48.8343 29.6583 50.4819 27.7488 50.4819C24.7107 50.4819 23.5869 42.72 26.0297 38.6057C28.0774 35.1676 27.8202 35.1962 51.4916 35.3486C72.4726 35.4819 72.4726 35.4819 74.2059 37.2867C75.4059 38.539 76.0155 39.6724 76.1916 40.9771C76.444 42.8628 76.444 42.8628 80.2059 42.8628C88.0916 42.8628 90.3155 45.2009 90.0535 53.2343C89.8726 58.7533 88.3631 61.8009 84.2964 64.8533L82.5107 66.1962L79.5345 66.5533C76.5583 66.9105 76.5583 66.9105 75.844 69.2914C75.4536 70.6009 74.8631 72.139 74.5345 72.7105C73.4536 74.6009 73.7488 74.7676 82.5107 74.7676C85.1297 77.4438 85.1297 77.4438 83.8393 79.5581C83.1297 80.72 82.4297 81.939 82.2916 82.2676L82.0345 82.8628L80.4488 84.6486C73.9393 91.9771 60.9202 95.2295 61.6202 89.3533C61.8202 87.6724 62.6583 87.1962 67.6583 85.92C69.4726 85.4581 71.544 84.4914 72.8964 83.4724C76.6107 80.6676 76.1726 80.6057 38.7012 81.4343C25.2488 80.7009 24.044 81.1724 27.5107 82.9581L29.1774 83.8152L31.3345 85.1247C33.4297 86.3962 33.7107 86.439 41.4536 86.5581C52.6345 86.7295 54.4059 87.3724 53.0012 90.739C52.4155 92.1486 52.6774 92.0962 38.225 92.8628C27.5678 90.9486 23.5107 88.2771 19.4488 82.72C15.3297 77.0819 16.2297 74.7676 22.5393 74.7676C26.825 74.7676 27.1297 74.3867 25.8774 70.6295C23.6583 63.9962 24.7107 55.2438 27.7297 55.2438C29.9726 55.2438 30.5107 56.6009 30.7297 62.8009C30.9202 68.0866 32.1536 71.7581 34.0583 72.6867L34.4155 72.8628ZM82.5107 58.5771C84.7678 54.62 84.6726 49.3628 83.344 49.1724L82.5107 49.0533H79.4155C76.3202 49.0533 76.3202 49.0533 76.3202 55.0057C76.3202 61.7914 76.7774 62.2914 82.5107 58.5771Z" fill="#16163F"/>
<path d="M34.4155 72.8628C34.9584 70.8819 35.0441 65.4009 34.9584 59.4105C34.7251 43.6628 33.2917 44.639 56.4393 44.72L70.606 44.7676C70.2965 74.7676 70.1441 74.9057 49.9155 74.6771C38.5822 74.5486 36.8393 74.4295 35.706 73.6962L34.4155 72.8628Z" fill="#FFAA8E"/>
<path d="M38.225 92.8628C52.6774 92.0962 52.4155 92.1486 53.0012 90.739C54.4059 87.3724 52.6345 86.7295 41.4536 86.5581C33.7107 86.439 33.4297 86.3962 31.3345 85.1247L29.1774 83.8152C30.2012 83.0867 31.5869 83.0724 33.4059 83.3295C36.7393 83.8009 39.4345 83.2009 38.9726 82.0914L38.7012 81.4343C76.1726 80.6057 76.6107 80.6676 72.8964 83.4724C71.544 84.4914 69.4726 85.4581 67.6583 85.92C62.6583 87.1962 61.8202 87.6724 61.6202 89.3533C60.9202 95.2295 73.9393 91.9771 80.4488 84.6486L82.0345 82.8628C90.4297 82.8628 85.5155 91.0152 77.5107 93.6057C73.3726 94.9438 43.4583 95.0152 40.2488 93.6962L38.225 92.8628Z" fill="#FFAA8E"/>
<path d="M44.6011 16.9724C47.5535 14.3819 47.8392 13.9581 48.4773 11.22C49.244 7.9057 50.544 6.78666 52.6821 7.60094C56.544 9.06761 54.3392 16.5057 48.5392 21.5819C45.5964 24.1533 45.325 24.5581 44.6773 27.3533C44.2488 29.2152 43.6869 30.4771 43.2059 30.6628C42.7821 30.8248 41.9154 30.9581 41.2821 30.9581C40.5726 30.9581 39.8345 30.4962 39.3583 29.7533C37.4535 26.7867 39.7297 21.239 44.6011 16.9724Z" fill="#16163F"/>
<path d="M57.6298 18.82C59.6726 17.12 60.2393 16.3295 60.4583 14.8962C60.8107 12.6009 61.8345 11.4343 63.5012 11.4343C68.106 11.4343 67.0822 18.6009 61.825 23.139C59.5536 25.1009 59.0393 25.8438 58.6298 27.7486C58.3393 29.1009 57.7869 30.2057 57.2631 30.4867C56.7774 30.7438 55.8345 30.9581 55.1631 30.9581C54.3822 30.9581 53.6631 30.5295 53.1822 29.7771C51.5107 27.1724 53.506 22.2486 57.6298 18.82Z" fill="#16163F"/>
<path d="M82.5107 49.0533C82.5107 50.5295 82.2964 50.9581 82.0345 50.9581C81.7726 50.9581 81.5583 51.9105 81.5583 53.0724C81.5583 54.2343 81.7726 55.32 82.0345 55.4819C82.2964 55.6438 82.5107 56.4057 82.5107 57.1771V58.5771C76.7773 62.2914 76.3202 61.7914 76.3202 55.0057C76.3202 49.0533 76.3202 49.0533 79.4154 49.0533H82.5107Z" fill="#FFAA8E"/>
<path d="M82.5107 66.1962C81.4869 69.3438 81.5488 71.9343 82.1536 73.7152L82.5107 74.7676C73.7488 74.7676 73.4536 74.6009 74.5345 72.7105C74.8631 72.139 75.4536 70.6009 75.8441 69.2914C76.5583 66.9105 76.5583 66.9105 79.5345 66.5533L82.5107 66.1962Z" fill="#FFAA8E"/>
</g>
<defs>
<clipPath id="clip0_7_10">
<rect width="100" height="100" fill="white" transform="translate(0.605957 0.958084)"/>
</clipPath>
</defs>
</svg>
