<svg width="513" height="513" viewBox="0 0 513 513" fill="none" xmlns="http://www.w3.org/2000/svg">
<g clip-path="url(#clip0_6_5)">
<path d="M211.222 412.687C184.7 363.429 175.716 347.598 172.293 344.018C168.536 340.094 157.825 333.974 103.418 304.637C35.4161 267.963 34.3372 267.277 31.8753 259.106C29.1387 249.984 26.8043 251.573 103.026 210.417C160.434 179.422 171.076 173.331 173.636 170.075C175.294 167.956 192.223 137.364 211.262 102.083C250.172 29.9812 248.622 32.2077 258.999 33.6398C268.778 34.9835 268.494 34.5618 305.383 102.966C326.02 141.219 340.596 167.142 343.156 170.153C347.01 174.675 352.68 177.941 415.375 211.712C490.007 251.907 488.369 250.828 486.506 258.635C484.809 265.756 484.034 266.237 413.021 304.529C347.726 339.731 344.754 341.448 341.567 345.94C339.732 348.52 323.784 377.553 306.129 410.46C272.358 473.411 270.112 476.961 261.755 480.59C259.264 481.669 256.645 482.552 255.939 482.552C255.223 482.552 252.634 481.238 250.172 479.629C245.885 476.824 244.316 474.117 211.222 412.687Z" fill="#FFD270" fill-opacity="0.988235"/>
</g>
<defs>
<clipPath id="clip0_6_5">
<rect width="512" height="512" fill="white" transform="translate(0.605957 0.958084)"/>
</clipPath>
</defs>
</svg>
