<svg xmlns="http://www.w3.org/2000/svg" xmlns:xlink="http://www.w3.org/1999/xlink" viewBox="0,0,256,256" width="48px" height="48px" fill-rule="nonzero"><g fill="none" fill-rule="nonzero" stroke="none" stroke-width="none" stroke-linecap="none" stroke-linejoin="none" stroke-miterlimit="10" stroke-dasharray="" stroke-dashoffset="0" font-family="none" font-weight="none" font-size="none" text-anchor="none" style="mix-blend-mode: normal"><g transform="scale(5.33333,5.33333)"><path d="M45.587,21.559c-0.731,-1.676 -2.728,-1.841 -4.57,-1.841h-4.735v-4.735c0,-1.842 -0.166,-3.839 -1.842,-4.57c-1.461,-0.634 -3.03,-1.413 -6.44,-1.413c-3.41,0 -4.979,0.779 -6.44,1.413c-1.676,0.731 -1.842,2.728 -1.842,4.57v4.735h-4.735c-1.841,0 -3.839,0.166 -4.57,1.841c-0.634,1.462 -1.413,3.031 -1.413,6.441c0,3.41 0.779,4.979 1.413,6.44c0.731,1.676 2.728,1.842 4.57,1.842h4.735v4.735c0,1.842 0.166,3.839 1.842,4.57c1.461,0.634 3.03,1.413 6.44,1.413c3.41,0 4.979,-0.779 6.44,-1.413c1.676,-0.731 1.842,-2.728 1.842,-4.57v-4.735h4.735c1.841,0 3.839,-0.166 4.57,-1.842c0.634,-1.461 1.413,-3.03 1.413,-6.44c0,-3.41 -0.779,-4.979 -1.413,-6.441z" fill="#90ebf9" stroke="none" stroke-width="1" stroke-linecap="butt" stroke-linejoin="miter"></path><path d="M32.5,15.5h4.86c1.89,0 3.94,0.17 4.69,1.89c0.65,1.5 1.45,3.11 1.45,6.61c0,3.5 -0.8,5.11 -1.45,6.61c-0.75,1.72 -2.8,1.89 -4.69,1.89h-12.86" fill="none" stroke="#18193f" stroke-width="3" stroke-linecap="round" stroke-linejoin="miter"></path><path d="M15,32.5h-4.36c-1.89,0 -3.94,-0.17 -4.69,-1.89c-0.65,-1.5 -1.45,-3.11 -1.45,-6.61c0,-3.5 0.8,-5.11 1.45,-6.61c0.75,-1.72 2.8,-1.89 4.69,-1.89h12.86" fill="none" stroke="#18193f" stroke-width="3" stroke-linecap="round" stroke-linejoin="miter"></path><path d="M15.5,10.64c0,-1.89 0.17,-3.94 1.89,-4.69c1.5,-0.65 3.11,-1.45 6.61,-1.45c3.5,0 5.11,0.8 6.61,1.45c1.72,0.75 1.89,2.8 1.89,4.69v8.36c0,2.761 -2.239,5 -5,5h-7c-2.761,0 -5,2.239 -5,5v8.36c0,1.89 0.17,3.94 1.89,4.69c1.5,0.65 3.11,1.45 6.61,1.45c3.5,0 5.11,-0.8 6.61,-1.45c1.049,-0.458 1.522,-1.399 1.731,-2.493" fill="none" stroke="#18193f" stroke-width="3" stroke-linecap="round" stroke-linejoin="round"></path><circle cx="20.5" cy="10.5" r="1.5" fill="#18193f" stroke="none" stroke-width="1" stroke-linecap="butt" stroke-linejoin="miter"></circle><circle cx="27.5" cy="37.5" r="1.5" fill="#18193f" stroke="none" stroke-width="1" stroke-linecap="butt" stroke-linejoin="miter"></circle></g></g></svg>