<svg width="46" height="48" viewBox="0 0 46 48" fill="none" xmlns="http://www.w3.org/2000/svg">
<g clip-path="url(#clip0_4_4)">
<path d="M7.90105 32.7921C7.95133 31.7513 7.77655 31.1596 7.54191 30.8055C6.99841 29.9834 7.19953 26.6139 7.79091 26.6139C7.98245 26.6139 8.14048 26.4547 8.14048 26.2574V25.901L8.25061 26.0792C8.31286 26.1766 8.82284 27.4337 9.38788 28.8713C13.8436 40.2131 29.7104 39.9255 33.8788 28.4269C35.3632 24.335 34.9681 20.7945 33.0743 21.2507C32.1046 21.4836 31.8436 22.1133 31.8436 24.2234C31.8436 33.1485 21.1102 37.661 14.4254 31.5493C11.2626 28.6574 9.93377 23.375 11.7175 20.7826C12.1054 20.2194 12.5962 19.2642 12.8069 18.6582C13.8173 15.7735 18.4166 13.3853 22.5108 13.6206C25.2738 13.7774 25.858 13.5945 25.858 12.5608C25.858 11.9501 25.6904 11.722 23.9426 10.6931C23.9426 10.0895 26.9713 10.2535 29.6289 10.7525L31.8436 11.1683V11.3869C31.8436 11.5081 29.3033 14.1743 26.2004 17.3109C20.514 23.059 19.9537 23.7956 20.6577 24.6059C21.5699 25.6515 22.2977 25.1382 34.7167 13.0693C35.0807 13.345 35.5116 13.7204 35.9091 14.0792L36.6322 14.7327L36.3401 15.6547C36.0791 16.4816 36.1294 16.8547 36.8213 19.2784C41.5763 35.9026 20.9593 47.5675 7.90105 32.7921ZM18.5986 17.1065C12.2658 19.9556 12.3568 28.08 18.7542 30.9861C19.7383 31.4352 20.5092 31.604 21.5579 31.604C22.6617 31.604 23.3656 31.4352 24.522 30.9006C26.344 30.0547 27.522 28.8689 28.3552 27.044C29.1333 25.3378 29.2052 23.4297 28.5084 23.059C27.2682 22.3984 26.0974 23.1849 26.0974 24.6772C26.0974 28.8879 19.8484 30.164 17.4661 26.438C15.6537 23.6008 17.8707 19.2475 21.1293 19.2475C22.4725 19.2475 23.1908 18.3042 22.6736 17.2253C22.1421 16.118 20.8755 16.0824 18.5986 17.1065Z" fill="#FFAA8E"/>
<path d="M16.9992 42.5346C11.4972 40.8546 5.31286 35.3822 4.77654 32.5877C4.66162 31.9818 4.34318 30.9125 4.07024 30.2115C2.69114 26.6756 2.66481 23.3869 3.97207 17.8764C4.77654 14.4855 4.77654 14.4855 6.81885 12.0903C9.51717 8.9204 12.273 7.03604 15.8548 5.91446C21.6058 4.11089 30.7255 5.60079 30.0599 8.23604C29.7989 9.26733 29.1621 9.44317 27.4669 8.95366C23.9881 7.94851 22.3049 7.75129 19.7574 8.04832C9.31845 9.26257 2.89705 19.8012 6.44774 29.8954C6.87631 31.1097 7.37671 32.2598 7.56346 32.4499L7.90105 32.7921C20.9593 47.5675 41.5763 35.9026 36.8213 19.2784C36.1294 16.8547 36.0791 16.4816 36.3401 15.6547L36.6322 14.7327C38.2459 14.9584 39.7543 17.2586 40.044 18.9291L40.2235 19.9604L40.3935 23.1873C40.9945 34.6313 30.7016 44.2503 16.9992 42.5346Z" fill="#16163D"/>
<path d="M8.14048 25.901C8.98565 17.539 11.8181 13.6895 16.6497 11.779C18.7231 10.9592 22.0128 10.3889 23.4039 10.6075L23.9426 10.6931C25.6904 11.722 25.858 11.9501 25.858 12.5608C25.858 13.5945 25.2738 13.7774 22.5108 13.6206C18.4166 13.3853 13.8173 15.7735 12.8069 18.6582C12.5962 19.2642 12.1054 20.2194 11.7175 20.7826C9.93378 23.375 11.2626 28.6574 14.4254 31.5493C21.1102 37.661 31.8436 33.1485 31.8436 24.2234C31.8436 22.1133 32.1046 21.4836 33.0743 21.2507C34.9681 20.7945 35.3632 24.335 33.8788 28.4269C29.7104 39.9255 13.8436 40.2131 9.38789 28.8713C8.82284 27.4337 8.31287 26.1766 8.25062 26.0792L8.14048 25.901Z" fill="#16163D"/>
<path d="M16.9992 42.5347C30.7016 44.2503 40.9945 34.6313 40.3935 23.1873L40.2235 19.9604C41.4805 20.9061 41.7583 21.4408 42.1461 22.8119C45.9458 36.278 33.364 48.7485 20.2315 44.5331C18.692 44.0388 17.9234 43.6539 17.5379 43.1881L16.9992 42.5347Z" fill="#FFAA8E"/>
<path d="M31.8436 11.1683C33.0096 10.56 33.0408 10.4364 33.0408 8.50218C33.0408 6.36832 33.2682 5.5604 33.9721 5.20158C34.609 4.87604 35.6218 5.49386 35.9211 6.38733C36.1748 7.15247 36.1748 7.15248 37.0631 6.51802C38.7966 5.27287 40.2666 6.85069 38.9019 8.4903C38.2267 9.30059 38.2267 9.30059 39.0934 9.63327C41.6769 10.6289 40.791 12.0832 37.3792 12.4515C36.036 12.5964 34.8867 12.7937 34.8269 12.8911L34.7167 13.0693C22.2977 25.1382 21.5699 25.6515 20.6577 24.6059C19.9537 23.7956 20.514 23.059 26.2004 17.3109C29.3033 14.1743 31.8436 11.5081 31.8436 11.3869V11.1683Z" fill="#16163D"/>
<path d="M18.5986 17.1065C20.8755 16.0824 22.1421 16.118 22.6736 17.2253C23.1908 18.3042 22.4725 19.2475 21.1293 19.2475C17.8707 19.2475 15.6537 23.6008 17.4661 26.438C19.8484 30.164 26.0974 28.8879 26.0974 24.6772C26.0974 23.1849 27.2682 22.3984 28.5084 23.059C29.2052 23.4297 29.1333 25.3378 28.3552 27.044C27.522 28.8689 26.344 30.0547 24.522 30.9006C23.3656 31.4352 22.6617 31.604 21.5579 31.604C20.5092 31.604 19.7383 31.4352 18.7542 30.9861C12.3568 28.08 12.2658 19.9556 18.5986 17.1065Z" fill="#16163D"/>
</g>
<defs>
<clipPath id="clip0_4_4">
<rect width="45.4909" height="48" fill="white"/>
</clipPath>
</defs>
</svg>
